<svg width="157" height="35" viewBox="0 0 157 35" fill="none" xmlns="http://www.w3.org/2000/svg">
<path d="M41.1355 6.62695C41.1603 6.81307 41.2025 6.99655 41.2617 7.17507C44.0556 14.4538 46.8556 21.7266 49.6615 28.9935C49.7427 29.1968 49.8148 29.409 49.9229 29.6919H49.4002C47.859 29.6919 46.3178 29.6919 44.7766 29.6919C44.637 29.7124 44.4948 29.6786 44.3803 29.5977C44.2658 29.5167 44.1881 29.3951 44.1638 29.2587C43.7852 28.1271 43.3526 27.0132 42.9651 25.8816C42.9369 25.7537 42.8615 25.6405 42.7533 25.5638C42.6452 25.487 42.5119 25.4523 42.3792 25.4661H34.8175C34.6852 25.4482 34.5509 25.4816 34.4432 25.5592C34.3355 25.6367 34.2629 25.7524 34.2407 25.8816C33.8442 27.0309 33.4206 28.1625 33.024 29.3029C32.9978 29.4248 32.9258 29.5326 32.8222 29.6047C32.7186 29.6768 32.5912 29.7079 32.4652 29.6919C29.9777 29.6919 27.4902 29.7715 25.0026 29.6919C21.9651 29.6939 19.0413 28.5588 16.8281 26.5182C15.6958 25.4191 14.905 24.0273 14.5478 22.5046C14.5318 22.3757 14.4711 22.2563 14.3759 22.1661C14.2808 22.076 14.1569 22.0207 14.0251 22.0095C12.3414 21.7406 10.7334 21.1299 9.30406 20.2166C7.87472 19.3032 6.65549 18.1072 5.72436 16.7052C4.66856 15.0512 4.01195 13.1825 3.80464 11.2417C3.74155 10.7466 3.66945 10.2516 3.57031 9.7565V6.62695H24.8404C24.9936 6.62695 25.1468 6.70652 25.3091 6.73304C25.958 6.83029 26.6159 6.87449 27.2468 7.02478C29.0644 7.40232 30.672 8.43362 31.7532 9.91563C31.845 10.0218 31.9033 10.1519 31.921 10.2901C31.9386 10.4283 31.9147 10.5685 31.8523 10.6936C31.4107 11.7898 31.0051 12.8949 30.5815 14C30.4103 14.4508 30.23 14.884 30.0227 15.4144C29.8876 15.052 29.7974 14.7514 29.6803 14.4685C28.5987 11.8871 27.0936 10.8881 24.2996 10.8881H8.1578C8.14327 11.041 8.14327 11.1949 8.1578 11.3478C8.38813 12.9194 9.11147 14.3817 10.2274 15.5318C11.3434 16.6819 12.7967 17.4628 14.3856 17.766C15.6273 18.0148 16.8972 18.101 18.162 18.0224C18.4954 18.0224 18.6216 18.1108 18.6036 18.4556C18.6036 19.1363 18.6036 19.8259 18.6036 20.5154C18.6141 21.1132 18.7481 21.7027 18.9975 22.2482C19.2469 22.7937 19.6065 23.2839 20.0546 23.6892C21.0855 24.5328 22.3324 25.0832 23.6597 25.2805C25.2737 25.5117 26.9058 25.5975 28.5356 25.5369C28.7347 25.5711 28.9396 25.5286 29.1076 25.4183C29.2755 25.3079 29.3935 25.1382 29.4369 24.9445C31.1403 20.4536 32.8798 15.9714 34.6012 11.4804C35.2231 9.86259 35.827 8.24477 36.4038 6.62695H41.1355ZM41.0093 20.7718L38.7201 14.1591C38.5802 14.261 38.4763 14.4032 38.4226 14.5658C37.7497 16.4576 37.0767 18.3525 36.4038 20.2502C36.2325 20.7364 36.2596 20.7807 36.8003 20.7807C38.0441 20.7807 39.2969 20.7807 40.5406 20.7807C40.6977 20.7706 40.8541 20.7529 41.0093 20.7276V20.7718Z" fill="#502D17"/>
<path d="M110.993 6.62762L112.102 6.83095C114.13 7.14921 115.148 8.21892 115.175 10.2434C115.175 13.4525 115.175 16.6616 115.175 19.8707C115.168 20.0791 115.214 20.2859 115.31 20.4719C115.4 20.3747 115.509 20.2774 115.59 20.1713C117.122 18.2971 118.648 16.4141 120.168 14.5222C120.247 14.4067 120.354 14.3134 120.481 14.2513C120.607 14.1893 120.748 14.1608 120.889 14.1686C122.629 14.1686 124.368 14.1686 126.108 14.1686H126.594L125.837 15.1234C124.269 17.0683 122.71 19.0132 121.124 20.9404C121.06 20.996 121.009 21.0641 120.974 21.1403C120.94 21.2165 120.922 21.299 120.922 21.3825C120.922 21.466 120.94 21.5485 120.974 21.6247C121.009 21.7008 121.06 21.7689 121.124 21.8245C123.13 24.2999 125.134 26.7811 127.135 29.2682L127.387 29.6307H126.856C125.188 29.6307 123.53 29.6307 121.863 29.6307C121.663 29.6456 121.462 29.6095 121.28 29.5258C121.099 29.4422 120.942 29.3138 120.826 29.1533C119.138 27.0139 117.44 24.8863 115.734 22.7704L115.238 22.187C115.203 22.4096 115.179 22.6338 115.166 22.8588C115.166 24.9275 115.166 27.0051 115.166 29.0472C115.166 29.4892 115.031 29.613 114.589 29.6042C113.301 29.6042 112.003 29.6042 110.705 29.6042C110.272 29.6042 110.164 29.4804 110.164 29.0649C110.164 21.739 110.164 14.4132 110.164 7.08733C110.164 6.89284 110.164 6.69835 110.164 6.5127L110.993 6.62762Z" fill="#502D17"/>
<path d="M69.9778 6.62695L71.1675 6.83029C71.6119 6.86108 72.0453 6.97935 72.442 7.17804C72.8387 7.37673 73.1906 7.65177 73.4766 7.98675C73.7626 8.32173 73.9768 8.70978 74.1066 9.12776C74.2364 9.54573 74.279 9.98507 74.2319 10.4195C74.2319 11.3036 74.2319 12.2761 74.2319 13.1955C74.2319 13.6021 74.331 13.7436 74.7636 13.7347C75.9263 13.7347 77.0889 13.7347 78.2425 13.7347C78.6211 13.7347 78.7473 13.8408 78.7382 14.221C78.7382 15.441 78.7382 16.661 78.7382 17.8898C78.7382 18.2523 78.6211 18.3495 78.2606 18.3407C77.0709 18.3407 75.8812 18.3407 74.6555 18.3407C74.34 18.3407 74.1958 18.3937 74.1958 18.7562C74.1958 20.4712 74.1958 22.1863 74.1958 23.9014C74.1958 25.3777 75.043 25.7756 76.3949 25.6695C77.134 25.6253 77.864 25.5103 78.6661 25.4219V26.085C78.6661 27.0663 78.6661 28.0476 78.6661 29.0377C78.6815 29.1537 78.6493 29.271 78.5767 29.3638C78.504 29.4566 78.3968 29.5174 78.2786 29.5328C77.4076 29.8204 76.4938 29.9638 75.5748 29.9571C74.6725 29.9769 73.7698 29.9473 72.8709 29.8687C71.9413 29.7637 71.0795 29.3396 70.4379 28.6715C69.7963 28.0033 69.4163 27.1341 69.365 26.2176C69.2958 25.7166 69.2627 25.2114 69.2658 24.7058C69.2658 18.8888 69.2658 13.0688 69.2658 7.24579C69.2658 7.04246 69.2658 6.83029 69.2658 6.62695H69.9778Z" fill="#502D17"/>
<path d="M54.0426 6.62603C54.2409 6.69675 54.4302 6.77632 54.6284 6.8382C55.2308 7.04867 55.7434 7.45185 56.0838 7.98282C56.4241 8.51379 56.5724 9.14166 56.5048 9.76535C56.4371 10.389 56.1575 10.9722 55.7109 11.4211C55.2642 11.8699 54.6766 12.1583 54.0426 12.2398C53.3011 12.3398 52.5491 12.1531 51.9453 11.7193C51.3415 11.2854 50.9334 10.6383 50.807 9.91471C50.6958 9.20728 50.863 8.48484 51.2747 7.89385C51.6864 7.30287 52.3118 6.88756 53.0242 6.73211C53.1233 6.73211 53.2134 6.65255 53.3126 6.61719L54.0426 6.62603Z" fill="#502D17"/>
<path d="M137.743 24.6367L141.276 26.8203C140.813 27.5432 140.199 28.1611 139.473 28.6326C138.212 29.5142 136.696 29.9787 135.147 29.9587C134.036 30.001 132.923 29.9447 131.822 29.7907C130.227 29.5334 128.76 28.7785 127.638 27.6382C126.516 26.4978 125.799 25.0328 125.594 23.4609C125.008 20.075 126.225 16.3885 129.74 14.6204C131.093 13.8765 132.628 13.5074 134.179 13.5525C135.73 13.5977 137.239 14.0554 138.545 14.8767C139.422 15.4391 140.163 16.182 140.717 17.0537C141.271 17.9255 141.625 18.9052 141.754 19.9247C141.916 20.8087 141.889 21.7635 141.961 22.6829C141.961 23.0808 141.826 23.1868 141.438 23.1868C138.004 23.1868 134.571 23.1868 131.137 23.1868C130.344 23.1868 130.235 23.2841 130.569 24.0002C130.82 24.5902 131.227 25.1038 131.749 25.4877C132.27 25.8715 132.886 26.1119 133.534 26.1838C134.313 26.3279 135.117 26.2599 135.859 25.9871C136.601 25.7143 137.253 25.2473 137.743 24.6367ZM133.75 19.9954H136.77C136.995 19.9954 137.184 19.9954 137.166 19.6683C137.122 19.0843 136.893 18.5286 136.509 18.0796C136.126 17.6307 135.609 17.3113 135.03 17.1664C134.552 17.081 134.065 17.0484 133.579 17.0692C132.868 17.1114 132.188 17.365 131.627 17.7961C131.067 18.2273 130.654 18.8155 130.443 19.4827C130.326 19.8628 130.443 20.0042 130.821 20.0042C131.795 19.9866 132.768 19.9954 133.75 19.9954Z" fill="#502D17"/>
<path d="M82.7597 18.7083L80.3533 15.7732C80.155 15.5257 80.3533 15.4196 80.5336 15.3135C81.621 14.512 82.8774 13.9592 84.2108 13.6957C86.2566 13.1683 88.4196 13.2859 90.3935 14.0316C91.4238 14.4113 92.308 15.0963 92.9234 15.9914C93.5387 16.8865 93.8547 17.9473 93.8274 19.0265C93.8905 22.4301 93.8274 25.8337 93.8274 29.2373C93.8274 29.6175 93.6922 29.7059 93.3227 29.7059C90.9253 29.7059 88.5369 29.7059 86.1125 29.7059C84.8131 29.708 83.5285 29.4367 82.3451 28.9102C81.524 28.5328 80.8548 27.8974 80.4434 27.1048C80.032 26.3121 79.902 25.4075 80.0739 24.5342C80.3713 21.882 82.3812 20.609 84.5803 20.2377C85.8587 20.0634 87.1471 19.9689 88.4378 19.9548C88.8433 19.9548 88.9695 19.8398 88.9515 19.4509C88.8614 17.5236 87.6987 16.8959 85.8421 17.2319C84.7085 17.4736 83.6511 17.9801 82.7597 18.7083ZM88.9605 24.8436C88.9605 24.4104 88.9605 23.9595 88.9605 23.544C88.9605 23.1285 88.8523 23.0755 88.5099 23.0932C87.924 23.0932 87.3292 23.0932 86.7073 23.1727C86.2593 23.1908 85.8355 23.3771 85.5235 23.693C85.2115 24.0089 85.0352 24.4303 85.0309 24.8701C85.0225 25.0778 85.0563 25.2851 85.1305 25.4798C85.2046 25.6745 85.3176 25.8528 85.4627 26.0042C85.6079 26.1557 85.7823 26.2772 85.9759 26.3618C86.1695 26.4463 86.3783 26.4922 86.5901 26.4968C87.2861 26.5497 87.9852 26.5497 88.6811 26.4968C88.7622 26.4968 88.8974 26.3111 88.9064 26.1962C88.9785 25.763 88.9605 25.3033 88.9605 24.8436Z" fill="#502D17"/>
<path d="M106.494 18.5395C105.728 18.1328 105.043 17.7173 104.313 17.3902C103.491 17.0043 102.551 16.938 101.681 17.2045C100.987 17.4079 100.636 17.788 100.618 18.3361C100.6 18.8842 100.906 19.2202 101.618 19.4589C102.33 19.6976 103.232 19.8832 104.034 20.0954C105.351 20.3667 106.57 20.977 107.567 21.8635C109.288 23.5078 109.108 27.0883 106.783 28.6972C105.677 29.5148 104.328 29.9528 102.943 29.9438C101.684 29.9588 100.426 29.8938 99.1759 29.7493C97.7804 29.5388 96.4692 28.9614 95.3815 28.0784C95.2373 27.9723 95.1021 27.8486 94.9219 27.6983L96.1746 26.1512L97.4004 24.6483C98.0944 25.0638 98.7253 25.5323 99.4102 25.8506C100.35 26.4014 101.47 26.5755 102.538 26.3368C103.385 26.1335 103.718 25.718 103.709 24.9842C103.709 24.7281 103.62 24.4797 103.456 24.2803C103.292 24.0809 103.063 23.9424 102.808 23.888C101.97 23.6051 101.123 23.3841 100.275 23.1542C99.1512 22.9302 98.0958 22.4519 97.1931 21.7574C96.7276 21.3173 96.3619 20.7859 96.1196 20.1979C95.8773 19.61 95.764 18.9786 95.787 18.3448C95.8099 17.711 95.9687 17.0891 96.2528 16.5194C96.537 15.9498 96.9403 15.4453 97.4364 15.0386C98.6795 14.0592 100.214 13.5037 101.808 13.4562C103.715 13.3015 105.628 13.672 107.332 14.5259C107.864 14.8088 108.351 15.1712 108.919 15.5337C108.117 16.5945 107.278 17.5847 106.494 18.5395Z" fill="#502D17"/>
<path d="M148.467 15.6378C149.144 15.0153 149.968 14.5686 150.865 14.3382C151.541 14.1703 152.235 14.0553 152.92 13.9316C153.217 13.8785 153.361 13.9758 153.361 14.3117C153.361 15.5759 153.361 16.8489 153.361 18.1131C153.361 18.4314 153.244 18.5021 152.938 18.5286C151.857 18.5942 150.829 19.0087 150.014 19.7076C149.199 20.4065 148.642 21.3503 148.431 22.392C148.399 22.5847 148.383 22.78 148.386 22.9754C148.386 25.0264 148.386 27.0863 148.386 29.1638C148.386 29.6058 148.287 29.7738 147.801 29.7561C146.458 29.7561 145.097 29.7561 143.772 29.7561C143.384 29.7561 143.285 29.6323 143.285 29.261C143.285 24.3988 143.285 19.5365 143.285 14.6742C143.285 14.3205 143.384 14.2056 143.754 14.2145C145.142 14.2145 146.53 14.2145 147.918 14.2145C148.296 14.2145 148.395 14.3559 148.377 14.6918C148.359 15.0278 148.377 15.3195 148.377 15.6378H148.467Z" fill="#502D17"/>
<path d="M63.054 15.6468C64.1906 14.6785 65.6101 14.0875 67.1098 13.9583C67.2741 13.9348 67.4395 13.92 67.6055 13.9141C67.8398 13.9141 67.9389 13.9848 67.9389 14.2146C67.9389 15.5319 67.9389 16.8668 67.9389 18.1575C67.9389 18.4493 67.7857 18.4758 67.5424 18.5111C66.7721 18.5597 66.0231 18.779 65.3518 19.1527C64.6805 19.5263 64.1044 20.0445 63.6669 20.6682C63.1668 21.3901 62.9027 22.2443 62.9098 23.1171C62.9098 25.1327 62.9098 27.1395 62.9098 29.1551C62.9098 29.5795 62.8017 29.7298 62.351 29.7209C61.0171 29.7209 59.6472 29.7209 58.3674 29.7209C57.9618 29.7209 57.8086 29.6325 57.8086 29.1993C57.8086 24.3665 57.8086 19.5307 57.8086 14.692C57.8086 14.2765 57.9438 14.1704 58.3584 14.1704C59.7193 14.1704 61.0622 14.1704 62.4321 14.1704C62.7926 14.1704 62.9278 14.2677 62.9098 14.6213C62.8918 14.9749 62.9098 15.2667 62.9098 15.5849L63.054 15.6468Z" fill="#502D17"/>
<path d="M51.0571 21.6643C51.0571 19.1889 51.0571 16.7136 51.0571 14.2382C51.0571 13.8581 51.1472 13.699 51.5618 13.7255C52.5528 13.7362 53.5333 13.925 54.4549 14.2824C54.9889 14.4946 55.4433 14.8631 55.7561 15.3377C56.069 15.8122 56.2252 16.3699 56.2034 16.9346C56.2034 21.072 56.2034 25.2005 56.2034 29.3114C56.2034 29.6738 56.0502 29.7357 55.7347 29.7357C54.3377 29.7357 52.9317 29.7357 51.5258 29.7357C51.1472 29.7357 51.0391 29.6119 51.0391 29.2406C51.0661 26.7122 51.0571 24.1838 51.0571 21.6643Z" fill="#502D17"/>
<path d="M150.477 28.0707C150.484 27.7852 150.577 27.5081 150.744 27.2742C150.911 27.0403 151.145 26.86 151.416 26.7559C151.687 26.6519 151.984 26.6287 152.268 26.6893C152.553 26.7498 152.813 26.8915 153.015 27.0965C153.218 27.3015 153.355 27.5606 153.408 27.8414C153.461 28.1222 153.428 28.4122 153.314 28.6749C153.2 28.9376 153.009 29.1614 152.766 29.3181C152.522 29.4748 152.237 29.5576 151.946 29.5559C151.75 29.5536 151.556 29.5133 151.376 29.4373C151.196 29.3613 151.033 29.2511 150.896 29.1131C150.76 28.9751 150.652 28.8119 150.58 28.633C150.508 28.4541 150.473 28.263 150.477 28.0707ZM150.72 28.0707C150.727 28.3086 150.806 28.5392 150.946 28.7337C151.085 28.9282 151.281 29.0779 151.507 29.1641C151.733 29.2504 151.98 29.2694 152.217 29.2188C152.454 29.1681 152.671 29.0501 152.84 28.8794C153.009 28.7086 153.123 28.4929 153.168 28.2589C153.213 28.025 153.186 27.7833 153.092 27.5641C152.997 27.3448 152.839 27.1577 152.637 27.0261C152.435 26.8945 152.198 26.8243 151.955 26.8242C151.787 26.823 151.621 26.8547 151.466 26.9176C151.312 26.9805 151.171 27.0732 151.053 27.1903C150.936 27.3073 150.843 27.4463 150.781 27.5991C150.72 27.7518 150.689 27.9152 150.693 28.0796L150.72 28.0707Z" fill="#502D17"/>
<path d="M152.588 28.8812C152.516 28.8857 152.443 28.8857 152.371 28.8812C152.35 28.8779 152.33 28.8698 152.313 28.8575C152.296 28.8452 152.282 28.8291 152.272 28.8105C152.197 28.6995 152.127 28.5844 152.065 28.4657C152.021 28.3695 151.943 28.2927 151.844 28.2502C151.746 28.2077 151.635 28.2026 151.533 28.2359C151.524 28.4067 151.524 28.5778 151.533 28.7486C151.533 28.8636 151.533 28.8901 151.38 28.8901C151.227 28.8901 151.272 28.8901 151.272 28.784C151.272 28.3243 151.272 27.8999 151.272 27.396C151.272 27.3253 151.272 27.3076 151.38 27.3076H152.029C152.29 27.3076 152.461 27.4402 152.489 27.6524C152.499 27.7076 152.498 27.7642 152.486 27.8191C152.474 27.8739 152.451 27.9258 152.418 27.9719C152.385 28.0179 152.344 28.0571 152.295 28.0873C152.247 28.1174 152.193 28.1379 152.137 28.1475L152.633 28.8193L152.588 28.8812ZM151.542 27.9972H152.074C152.123 27.9885 152.168 27.9618 152.198 27.9224C152.228 27.883 152.242 27.8339 152.236 27.785C152.241 27.7611 152.241 27.7364 152.236 27.7125C152.231 27.6886 152.221 27.6659 152.207 27.646C152.193 27.6261 152.174 27.6093 152.153 27.5967C152.131 27.5841 152.108 27.576 152.083 27.5728C151.904 27.546 151.723 27.5283 151.542 27.5198V27.9972Z" fill="#502D17"/>
</svg>
