<svg width="125" height="49" viewBox="0 0 125 49" fill="none" xmlns="http://www.w3.org/2000/svg">
<path d="M113.855 31.2751C113.573 31.284 113.29 31.3006 113.008 31.3012C111.738 31.3038 110.469 31.3025 109.199 31.3012C109.113 31.3012 109.027 31.2929 108.926 31.2879V15.5243C110.579 15.5205 112.216 15.5173 113.855 15.5142V16.8621C112.724 16.8665 111.594 16.871 110.444 16.8754V22.6039H113.855V23.8932C113.475 23.8913 113.094 23.8887 112.714 23.8874C112.333 23.8862 111.953 23.8862 111.572 23.8874C111.196 23.8887 110.82 23.8919 110.446 23.8945V29.9412C110.806 29.9412 111.146 29.9425 111.485 29.9412C112.275 29.9374 113.065 29.9329 113.855 29.9285V31.2764V31.2751Z" fill="#4F4844"/>
<path d="M113.856 37.7787C113.647 37.8188 113.44 37.8755 113.23 37.8958C112.66 37.9506 112.167 37.7704 111.787 37.34C111.337 36.83 111.252 36.2353 111.512 35.6209C111.775 35.0027 112.281 34.676 112.951 34.6385C113.172 34.6264 113.398 34.6601 113.616 34.7047C113.8 34.7429 113.81 34.797 113.752 35.0428C113.594 35.0052 113.438 34.96 113.277 34.932C112.618 34.8167 111.912 35.2618 111.731 35.9004C111.533 36.6008 111.953 37.3451 112.664 37.5558C112.973 37.6475 113.278 37.6463 113.58 37.5259C113.671 37.4903 113.763 37.4597 113.855 37.4272V37.7787H113.856Z" fill="#4F4844"/>
<path d="M30.7575 5.0931C30.6544 5.17587 30.5353 5.244 30.4507 5.34269C29.3842 6.58044 28.4495 7.91497 27.5619 9.28515C25.6639 12.2153 24.0435 15.2975 22.5307 18.4384C20.7218 22.1943 19.1084 26.0349 17.5918 29.9169C15.9797 34.0427 14.4898 38.2125 13.1164 42.423C12.6268 43.925 12.1658 45.4365 11.6972 46.9455C11.6036 47.246 11.461 47.5014 11.1783 47.6593C11.1382 47.6815 11.091 47.6917 11 47.7248C12.0964 44.0753 13.2654 40.4925 14.5082 36.9155C14.1663 36.7831 13.8346 36.8175 13.508 36.857C13.0024 36.9174 12.5122 37.0467 12.0353 37.2256C11.964 37.2523 11.8895 37.2695 11.8035 37.2689C12.1047 37.0021 12.4332 36.7729 12.7961 36.6042C13.1559 36.4367 13.5328 36.3056 13.9237 36.1496C13.3456 35.9426 12.8318 35.6211 12.3861 35.1926C13.0222 35.3441 13.6404 35.574 14.3421 35.4441C14.3325 35.3072 14.3331 35.1831 14.314 35.0621C14.1612 34.0937 13.7709 33.2131 13.2896 32.3695C13.1011 32.039 12.8916 31.7207 12.693 31.396C12.6554 31.3342 12.6217 31.2705 12.6064 31.1903C13.2705 31.5844 13.8696 32.0505 14.3866 32.7171C14.4306 32.3173 14.4669 31.9913 14.5012 31.6653C14.6706 30.0703 15.0023 28.5072 15.4225 26.9607C16.1592 24.247 17.2206 21.6601 18.466 19.1451C19.4325 17.1936 20.485 15.288 21.6298 13.4352C23.2425 10.8247 24.9597 8.28553 26.9004 5.90553C27.6396 4.99823 28.4374 4.13677 29.239 3.28295C29.5841 2.91557 29.991 2.60041 30.3978 2.29924C30.9575 1.88539 31.5496 1.91786 32.1201 2.2916C33.0306 2.88819 33.5438 3.74456 33.7189 4.80913C33.8551 5.63557 33.8112 6.46074 33.6966 7.28654C33.5571 8.2919 33.2133 9.23231 32.8096 10.1555C32.1857 11.5805 31.4356 12.9354 30.5805 14.2342C30.0508 15.0384 29.3593 15.6477 28.5011 16.0769C28.4068 16.124 28.3151 16.1749 28.1611 16.2564C28.4711 16.2851 28.6927 16.1908 28.9162 16.1316C29.1607 16.0667 29.4033 15.9877 29.6389 15.8967C29.8642 15.8095 30.0801 15.698 30.3182 15.5885C30.3131 15.6509 30.3157 15.6993 30.3042 15.7439C30.0253 16.8078 29.6064 17.8163 29.0302 18.7517C28.5584 19.517 27.8866 20.0786 27.087 20.4867C26.959 20.5523 26.8304 20.6172 26.682 20.693C27.0398 20.7445 27.5161 20.5733 28.7099 19.9703C28.3616 20.6643 27.9573 21.2431 27.4575 21.7588C26.9558 22.2764 26.3592 22.6566 25.7142 22.9724C26.2694 22.9316 26.7832 22.7597 27.3187 22.5279C27.3085 22.5897 27.3079 22.6228 27.2977 22.6534C26.6858 24.5011 25.9625 26.2991 24.94 27.966C23.6959 29.9939 21.9997 31.4959 19.7891 32.3956C19.3402 32.5783 18.8646 32.6955 18.4208 32.8368C18.6067 32.9731 19.3567 33.0195 20.0838 32.938C20.683 32.8712 21.2497 32.7018 21.7877 32.4363C22.3161 32.1759 22.7847 31.8276 23.2285 31.4418C22.4957 33.08 21.2344 34.1618 19.5516 34.8545C20.1138 34.9965 20.9453 34.9055 21.6431 34.3171C21.5922 34.4292 21.5699 34.4961 21.5343 34.5546C20.9192 35.5625 20.0113 36.1833 18.9015 36.5322C18.0165 36.8105 17.1053 36.8939 16.1828 36.8837C16.0898 36.8824 15.9962 36.8837 15.8275 36.8837C16.2961 37.3822 16.6004 37.8891 16.6514 38.5194C16.3101 38.0597 16.0242 37.5541 15.4945 37.2562C15.5155 37.1696 15.5282 37.0938 15.5524 37.0219C17.6453 30.928 19.9654 24.9245 22.6791 19.077C23.9824 16.2698 25.387 13.5135 26.9501 10.8413C27.4626 9.96515 27.9822 9.0916 28.5475 8.24924C29.2161 7.2528 29.9375 6.29201 30.6334 5.31403C30.6824 5.24527 30.7111 5.16186 30.7493 5.08546C30.8537 5.0428 30.9269 4.97849 30.9225 4.85688C30.8359 4.91355 30.7327 4.96003 30.7563 5.09183L30.7575 5.0931Z" fill="#4F4844"/>
<path d="M94.3734 15.5198V22.5337H103.767V15.5427H105.288V31.2865H103.772V23.9313H94.3811V31.296C93.8711 31.3208 93.3885 31.3037 92.9122 31.3062C92.8479 31.0566 92.8205 16.2138 92.8804 15.5287C93.1153 15.5261 93.3547 15.5223 93.5948 15.5204C93.8386 15.5191 94.0818 15.5204 94.3741 15.5204L94.3734 15.5198Z" fill="#4F4844"/>
<path d="M53.6808 31.2862H52.1858V15.5201H52.5398C54.534 15.5201 56.5281 15.5303 58.5216 15.517C60.2293 15.5061 61.5294 16.2466 62.4794 17.6276C63.9998 19.8383 63.4453 22.6207 61.9044 24.1774C61.0754 25.0147 60.0695 25.4578 58.889 25.4655C57.2858 25.4756 55.6832 25.468 54.08 25.468C53.9635 25.468 53.8476 25.468 53.6941 25.468C53.668 25.8729 53.6846 26.2601 53.6814 26.6459C53.6789 27.0266 53.6814 27.4074 53.6814 27.7881C53.6814 28.1784 53.6814 28.5694 53.6814 28.9597V31.2856L53.6808 31.2862ZM53.6916 24.1016C53.8189 24.1086 53.9144 24.1182 54.0099 24.1182C55.5629 24.1188 57.1151 24.1207 58.6681 24.1182C59.7989 24.1163 60.6648 23.6216 61.2423 22.6627C61.8853 21.5949 62.0197 20.445 61.6472 19.255C61.1964 17.8167 59.979 16.884 58.5477 16.8725C57.0146 16.8604 55.4814 16.8693 53.9482 16.8706C53.8648 16.8706 53.782 16.8878 53.6916 16.8973V24.1016Z" fill="#4F4844"/>
<path d="M77.013 31.3072C76.4572 31.3072 75.979 31.304 75.5015 31.3091C75.3563 31.3104 75.3264 31.2066 75.2856 31.1092C75.0233 30.4788 74.7629 29.8472 74.5019 29.2162C74.1472 28.3599 73.7926 27.5035 73.4367 26.6478C73.3991 26.558 73.3545 26.4714 73.3004 26.3555C73.1998 26.3555 73.0947 26.3555 72.9891 26.3555C70.8287 26.3555 68.6684 26.3555 66.5087 26.3555C66.163 26.3555 66.2082 26.3205 66.07 26.6573C65.4728 28.1103 64.8787 29.5645 64.2796 31.0168C64.1523 31.325 64.2121 31.3085 63.8326 31.3085C63.4232 31.3085 63.0138 31.3085 62.6031 31.3085C62.6242 31.0589 68.7575 16.3217 69.1612 15.5354H70.4098C72.5988 20.764 74.7935 26.006 77.013 31.3072ZM69.8119 17.3621C69.6133 17.6601 66.6061 24.9128 66.5819 25.1292C66.9257 25.1942 72.7121 25.1757 72.9464 25.0987C71.9041 22.5264 70.8631 19.956 69.8119 17.3615V17.3621Z" fill="#4F4844"/>
<path d="M50.4281 31.2925C50.2766 31.2995 50.1817 31.3078 50.0868 31.3078C49.7545 31.309 49.4221 31.309 49.0904 31.3078C48.7905 31.3078 48.7886 31.3078 48.6695 31.0193C48.2659 30.0465 47.8635 29.0729 47.4604 28.0994C47.251 27.5945 47.0408 27.0909 46.8295 26.5866C46.7995 26.5159 46.7639 26.4472 46.7263 26.3689H39.6124C39.4488 26.7642 39.2852 27.1596 39.1222 27.5557C38.644 28.7196 38.162 29.8822 37.6921 31.0493C37.6157 31.2396 37.5215 31.3218 37.3082 31.3135C36.8803 31.2963 36.4512 31.3084 36.0201 31.3084C36.0526 31.0283 41.9243 16.9132 42.575 15.5366H43.8312C46.0177 20.7582 48.2124 25.9996 50.4281 31.2925ZM43.234 17.3646C43.0436 17.6371 40.0276 24.9121 40.004 25.1311C40.3542 25.1941 46.1361 25.1757 46.3685 25.1018C45.3256 22.5283 44.2839 19.9566 43.2334 17.3646H43.234Z" fill="#4F4844"/>
<path d="M90.3396 18.8637C89.9289 19.1139 89.5386 19.352 89.1362 19.5965C89.0974 19.5411 89.0611 19.4972 89.0344 19.4482C88.2582 18.008 87.0497 17.1745 85.4465 16.9007C84.0133 16.6556 82.6635 16.8835 81.4296 17.6699C80.4191 18.3136 79.6914 19.2132 79.2253 20.3052C78.1626 22.7941 78.3218 25.2014 79.8334 27.4681C80.6458 28.6861 81.7664 29.5196 83.2041 29.8933C85.3816 30.4593 88.0818 29.5291 89.2795 27.3172C89.3107 27.2593 89.3489 27.2045 89.3947 27.1306C89.8111 27.3458 90.2161 27.5547 90.635 27.7718C90.6019 27.859 90.5809 27.9323 90.5472 27.9991C90.083 28.9217 89.3922 29.6405 88.532 30.197C87.2172 31.0476 85.77 31.4723 84.205 31.4303C82.5037 31.3845 81.0297 30.7401 79.7894 29.589C78.2244 28.1366 77.3203 26.3322 77.0841 24.2152C76.8288 21.9218 77.4317 19.8519 78.891 18.0665C80.4147 16.2023 82.4247 15.3656 84.8232 15.442C86.1119 15.4828 87.3057 15.8298 88.3747 16.5658C89.2215 17.149 89.864 17.9074 90.339 18.8643L90.3396 18.8637Z" fill="#4F4844"/>
<path d="M56.7726 37.4479C56.8057 37.3493 56.8407 37.2512 56.8719 37.1519C57.1151 36.3802 57.3558 35.6072 57.6003 34.8362C57.6646 34.6331 57.6704 34.6344 57.9123 34.6655C57.9123 34.8706 57.091 37.3875 56.8751 37.8452C56.5631 37.9102 56.5517 37.907 56.4568 37.616C56.2219 36.8927 55.992 36.1675 55.7583 35.4442C55.7271 35.3487 55.6864 35.2558 55.6507 35.1615C55.6278 35.1622 55.6055 35.1635 55.5826 35.1641C55.5482 35.2494 55.5081 35.3328 55.4795 35.42C55.2369 36.1618 54.9975 36.9042 54.7542 37.6453C54.7192 37.7516 54.7065 37.879 54.5422 37.8841C54.3767 37.8892 54.3353 37.8688 54.2634 37.6561C53.9711 36.7877 53.682 35.9179 53.3923 35.0488C53.3529 34.9311 53.3153 34.8126 53.2771 34.6948C53.5572 34.6089 53.5744 34.6146 53.6521 34.8591C53.8941 35.6212 54.1322 36.3846 54.3748 37.1461C54.4085 37.2525 54.4563 37.355 54.4977 37.4594C54.5219 37.4594 54.546 37.4594 54.5696 37.4594C54.8657 36.5254 55.1611 35.592 55.4534 34.6694C55.7711 34.6216 55.7768 34.6191 55.8583 34.8731C56.106 35.6435 56.3479 36.4158 56.5937 37.1869C56.6223 37.276 56.6599 37.3626 56.693 37.4505C56.7191 37.4505 56.7459 37.4499 56.772 37.4492L56.7726 37.4479Z" fill="#4F4844"/>
<path d="M90.9084 37.8393C90.7212 37.9062 90.6334 37.8692 90.6226 37.7088C90.6187 37.6502 90.6181 37.5916 90.6181 37.533C90.6181 36.6837 90.6168 35.8343 90.6187 34.985C90.6187 34.8805 90.634 34.7761 90.641 34.6825C90.8499 34.5832 90.9708 34.6513 91.0854 34.8067C91.6234 35.5383 92.1691 36.2641 92.7135 36.9912C92.7816 37.0816 92.858 37.1657 92.93 37.2529C92.951 37.2472 92.9726 37.2421 92.9943 37.2363C93.0038 37.1262 93.021 37.0154 93.021 36.9053C93.0236 36.2514 93.021 35.5975 93.0216 34.9436C93.0216 34.8946 93.0229 34.8462 93.0274 34.7971C93.042 34.6297 93.1394 34.615 93.291 34.6672V37.8418C93.0853 37.9297 92.9529 37.8692 92.8306 37.7037C92.2863 36.9645 91.7342 36.2316 91.1835 35.4969C91.1268 35.4211 91.0632 35.3504 90.9963 35.2696C90.876 35.3695 90.911 35.4835 90.911 35.5816C90.9078 36.2259 90.9091 36.8702 90.9091 37.5146C90.9091 37.6203 90.9091 37.726 90.9091 37.8393H90.9084Z" fill="#4F4844"/>
<path d="M95.7043 37.8537V34.6593C95.7979 34.6498 95.8731 34.6351 95.9482 34.6345C96.3092 34.6319 96.6702 34.6307 97.0319 34.6345C97.8634 34.6434 98.5676 35.2604 98.6478 36.0397C98.7542 37.0731 98.0907 37.6964 97.3579 37.8568C97.2732 37.8753 97.1834 37.8791 97.0962 37.8798C96.7154 37.883 96.3347 37.8842 95.9546 37.8823C95.8718 37.8823 95.7884 37.8639 95.705 37.8537H95.7043ZM95.9979 34.9535C95.9877 35.0751 95.9718 35.1789 95.9711 35.2833C95.9686 35.9353 95.9699 36.5879 95.9705 37.2399C95.9705 37.308 95.9737 37.3761 95.9794 37.4436C95.9877 37.5442 96.0405 37.6124 96.1462 37.6085C96.5537 37.5939 96.9701 37.6219 97.3661 37.5455C97.9818 37.4271 98.367 36.8496 98.3492 36.2033C98.3339 35.6583 97.9506 35.0751 97.2668 34.9649C96.8689 34.9013 96.4518 34.9535 95.9979 34.9535Z" fill="#4F4844"/>
<path d="M41.5491 37.9031C40.736 37.9209 40.0567 37.4415 39.8536 36.701C39.5702 35.6682 40.2827 34.7546 41.2511 34.6412C41.991 34.5546 42.6067 34.8061 42.9887 35.4677C43.5974 36.5202 42.8696 37.7706 41.7286 37.8878C41.6605 37.8948 41.5924 37.8993 41.5485 37.9031H41.5491ZM40.1051 36.2737C40.1089 37.0187 40.7456 37.6274 41.5128 37.621C42.2737 37.6146 42.9167 36.9792 42.8964 36.2419C42.876 35.5256 42.2934 34.9074 41.4956 34.9118C40.5902 34.9169 40.0637 35.6714 40.1051 36.2744V36.2737Z" fill="#4F4844"/>
<path d="M83.5288 36.2864C83.5631 37.0708 82.8507 37.9138 81.8167 37.9087C80.8692 37.9036 80.1109 37.1377 80.1249 36.2297C80.1383 35.3504 80.9215 34.587 81.9166 34.6233C82.6189 34.6488 83.5651 35.2441 83.5294 36.2864H83.5288ZM81.8275 37.6209C82.5909 37.6241 83.2225 37.0116 83.2295 36.2609C83.2359 35.5427 82.6004 34.9079 81.8491 34.9073C81.1004 34.9073 80.4484 35.4759 80.4293 36.2539C80.4115 36.9798 81.0666 37.6171 81.8275 37.6203V37.6209Z" fill="#4F4844"/>
<path d="M64.4402 34.6337C64.8681 34.6337 65.266 34.6293 65.6639 34.6363C65.8091 34.6388 65.9562 34.6547 66.0975 34.6878C66.5782 34.8012 66.8425 35.0832 66.9087 35.5353C66.9806 36.0268 66.7915 36.442 66.3847 36.6839C66.3274 36.7183 66.2701 36.7527 66.1803 36.8074C66.4133 37.1544 66.6387 37.4906 66.866 37.8287C66.5992 37.9127 66.5948 37.9147 66.4585 37.7115C66.3013 37.4766 66.1459 37.2397 65.9976 36.9984C65.9231 36.8781 65.832 36.8221 65.6868 36.8278C65.4525 36.8374 65.2176 36.8265 64.9833 36.8323C64.7445 36.838 64.7197 36.8641 64.7114 37.1086C64.7044 37.3034 64.7146 37.4995 64.7044 37.6944C64.6949 37.8752 64.6847 37.8765 64.4408 37.837V34.6337H64.4402ZM64.7382 34.947C64.6834 35.4455 64.7082 35.9199 64.7191 36.3936C64.7216 36.4999 64.7955 36.5521 64.8948 36.5496C65.2545 36.5394 65.6175 36.5515 65.9721 36.5031C66.4146 36.4426 66.647 36.1185 66.6228 35.6773C66.5999 35.2628 66.3274 34.9763 65.8906 34.9514C65.5219 34.9304 65.1514 34.947 64.7388 34.947H64.7382Z" fill="#4F4844"/>
<path d="M69.1428 37.8556V34.6555H71.2981C71.3025 34.7396 71.3064 34.8141 71.3121 34.928H69.4504V36.0696C69.9884 36.1409 70.5245 36.0614 71.0485 36.1161C71.1077 36.3644 71.0924 36.3963 70.8785 36.4007C70.5169 36.4077 70.1552 36.4026 69.7936 36.4033C69.6885 36.4033 69.5834 36.4033 69.4567 36.4033V37.5869C69.5758 37.5971 69.6796 37.613 69.7834 37.6136C70.2131 37.6168 70.6436 37.6143 71.0733 37.6156C71.1415 37.6156 71.2153 37.6066 71.2758 37.6296C71.3172 37.6455 71.3643 37.7098 71.3637 37.7518C71.3637 37.7938 71.3121 37.8435 71.2713 37.8734C71.2446 37.8925 71.1956 37.8842 71.1567 37.8842C70.5411 37.8842 69.9254 37.8842 69.3097 37.8823C69.2625 37.8823 69.2154 37.8683 69.1422 37.8569L69.1428 37.8556Z" fill="#4F4844"/>
<path d="M103.39 37.8419C103.135 37.9349 103.076 37.8597 102.999 37.6776C102.938 37.5344 102.864 37.3956 102.812 37.2491C102.756 37.0944 102.655 37.0498 102.498 37.0524C102.02 37.06 101.541 37.0607 101.063 37.0524C100.899 37.0492 100.811 37.1122 100.757 37.2606C100.704 37.4064 100.635 37.5471 100.568 37.6884C100.47 37.8941 100.469 37.8935 100.195 37.8451C100.218 37.7801 100.236 37.7158 100.264 37.656C100.677 36.7302 101.09 35.8044 101.509 34.8812C101.55 34.7908 101.616 34.6845 101.699 34.6463C101.85 34.5762 101.968 34.6425 102.045 34.8099C102.263 35.2887 102.476 35.7701 102.691 36.2508C102.886 36.6869 103.082 37.1224 103.276 37.5592C103.315 37.6464 103.348 37.7368 103.39 37.8419H103.39ZM101.822 35.0296C101.633 35.2199 101.087 36.4475 101.053 36.7461C101.545 36.7449 102.033 36.7589 102.579 36.734C102.312 36.1336 102.07 35.5886 101.822 35.0296Z" fill="#4F4844"/>
<path d="M62.4577 37.8346C62.1668 37.8983 62.1655 37.8995 62.0681 37.692C61.9936 37.5334 61.9203 37.3736 61.8529 37.2119C61.8051 37.0973 61.7262 37.0533 61.6033 37.054C61.0958 37.0578 60.5884 37.0584 60.0809 37.054C59.9536 37.0527 59.8823 37.11 59.8351 37.2189C59.7702 37.3711 59.704 37.5232 59.6352 37.6741C59.5404 37.883 59.5391 37.8823 59.2615 37.8575C59.2812 37.7926 59.2927 37.7289 59.3188 37.6716C59.7314 36.7465 60.1452 35.8213 60.5604 34.8975C60.6839 34.623 60.6864 34.6243 61.036 34.6568C61.5039 35.7035 61.9796 36.7662 62.4584 37.8352L62.4577 37.8346ZM60.0695 36.7089C60.5591 36.7853 61.4091 36.7624 61.5874 36.6796C61.4778 36.2778 60.985 35.2165 60.8061 35.0337C60.5502 35.5889 60.3114 36.1333 60.0695 36.7089Z" fill="#4F4844"/>
<path d="M37.8553 34.8911C37.805 35.0063 37.7751 35.0751 37.7394 35.1566C37.6834 35.1426 37.6337 35.1394 37.5942 35.1184C37.309 34.9681 37.0053 34.9204 36.6869 34.9439C36.6576 34.9458 36.6284 34.9452 36.5991 34.949C36.3208 34.9834 36.119 35.1413 36.0821 35.352C36.0451 35.5602 36.1827 35.7888 36.4354 35.9028C36.6035 35.9786 36.7831 36.0295 36.9569 36.0932C37.1218 36.153 37.2899 36.2059 37.4491 36.2784C37.7693 36.4242 37.9552 36.6624 37.9482 37.0317C37.9419 37.3844 37.7611 37.6117 37.4599 37.7671C37.0301 37.9886 36.0572 37.9625 35.574 37.4137C35.6052 37.3462 35.6402 37.2711 35.6809 37.1838C35.8306 37.2723 35.9592 37.3589 36.0967 37.4264C36.4303 37.5901 36.7786 37.6556 37.1466 37.5557C37.5191 37.4551 37.7139 37.1246 37.5497 36.8273C37.4834 36.7082 37.3567 36.6051 37.2339 36.5389C37.0728 36.4529 36.8875 36.4128 36.713 36.3498C36.5303 36.2835 36.3425 36.225 36.168 36.1415C35.8764 36.0021 35.7389 35.7659 35.7414 35.4361C35.744 35.1139 35.8981 34.8866 36.1738 34.7637C36.7391 34.5116 37.2893 34.5944 37.8546 34.8892L37.8553 34.8911Z" fill="#4F4844"/>
<path d="M85.852 34.6789C85.8571 34.7694 85.8666 34.8649 85.8666 34.9604C85.8686 35.3991 85.8673 35.8384 85.8673 36.2771C85.8673 36.3554 85.8666 36.4331 85.8686 36.5114C85.8883 37.3461 86.4925 37.7924 87.2961 37.567C87.6469 37.469 87.8697 37.2436 87.9493 36.8896C87.9811 36.7482 87.9964 36.6005 87.9983 36.456C88.0041 35.9683 88.0009 35.4805 88.0009 34.9928C88.0009 34.8878 88.0009 34.7827 88.0009 34.6847C88.2549 34.635 88.2836 34.6414 88.2836 34.8126C88.2842 35.5047 88.2995 36.1988 88.2587 36.8889C88.2275 37.4149 87.7844 37.8223 87.2591 37.8771C87.0566 37.8981 86.8491 37.8988 86.6466 37.8796C86.0755 37.8262 85.6413 37.411 85.605 36.8348C85.568 36.242 85.5846 35.6455 85.5782 35.0508C85.5776 34.9725 85.5744 34.8941 85.582 34.8171C85.5992 34.6439 85.612 34.6382 85.8514 34.6789H85.852Z" fill="#4F4844"/>
<path d="M45.636 34.9345V36.136C46.1275 36.2016 46.6235 36.1284 47.1189 36.1768C47.1341 36.2258 47.1532 36.2608 47.1539 36.2971C47.1545 36.3429 47.1405 36.3894 47.1271 36.4677H45.6436C45.6341 36.5925 45.6213 36.6861 45.6207 36.7797C45.6181 37.0726 45.6239 37.3655 45.6181 37.6577C45.6137 37.8761 45.5984 37.8831 45.3297 37.8455V34.655H47.2927C47.3404 34.8925 47.3321 34.9205 47.138 34.9263C46.7477 34.9377 46.3567 34.9333 45.9664 34.9345C45.862 34.9345 45.7576 34.9345 45.6366 34.9345H45.636Z" fill="#4F4844"/>
<path d="M76.4142 34.6525H78.3924C78.4064 34.6958 78.4243 34.7314 78.4287 34.7684C78.4332 34.8059 78.4255 34.8448 78.4211 34.9135C77.8595 34.9638 77.2973 34.9027 76.7268 34.9473V36.1443C76.8592 36.1507 76.9726 36.1602 77.0865 36.1608C77.3985 36.1634 77.7112 36.1583 78.0231 36.1628C78.2492 36.1666 78.2511 36.1742 78.2148 36.4588H76.7421C76.658 36.9344 76.751 37.3929 76.681 37.8589H76.4142V34.6519V34.6525Z" fill="#4F4844"/>
<path d="M42.2864 11.1074C42.2864 11.4156 42.2864 11.6856 42.2864 11.9555C42.2864 12.0434 42.2953 12.1338 42.2749 12.2172C42.2654 12.2561 42.1998 12.2968 42.1533 12.3051C42.1272 12.3095 42.0756 12.2561 42.061 12.2185C42.0444 12.1765 42.0546 12.1223 42.0546 12.074C42.0546 11.3621 42.0546 10.6503 42.0565 9.93845C42.0565 9.87032 42.0502 9.79774 42.0718 9.73598C42.0871 9.69205 42.145 9.66276 42.1839 9.62646C42.217 9.66658 42.2749 9.70414 42.2794 9.7468C42.2927 9.88178 42.2864 10.0193 42.287 10.1556C42.287 10.3689 42.287 10.5815 42.287 10.8337C42.8715 10.8744 43.4286 10.8496 44.029 10.8521C44.029 10.5389 44.029 10.2593 44.029 9.98047C44.029 9.89261 44.0208 9.8022 44.0418 9.71942C44.052 9.67931 44.1207 9.62774 44.1608 9.62901C44.1997 9.63029 44.2532 9.68695 44.2703 9.73088C44.2901 9.78246 44.278 9.84613 44.278 9.9047C44.278 10.6165 44.2805 11.3284 44.2754 12.0402C44.2748 12.1414 44.3391 12.3089 44.1481 12.3044C43.9889 12.3006 44.0329 12.1516 44.0303 12.0523C44.0252 11.8479 44.0284 11.6429 44.0284 11.4379C44.0284 11.3424 44.0284 11.2462 44.0284 11.1132C43.4496 11.0852 42.8989 11.0992 42.2864 11.1068V11.1074Z" fill="#4F4844"/>
<path d="M46.2639 12.2813V9.65048C46.341 9.63775 46.4053 9.61801 46.4702 9.61801C46.9102 9.61546 47.3501 9.6161 47.7895 9.61674C47.8385 9.61674 47.892 9.60846 47.9346 9.62565C47.9722 9.64093 48.0257 9.68996 48.0225 9.7167C48.0161 9.76382 47.9792 9.83067 47.9397 9.84341C47.8684 9.86696 47.7856 9.85996 47.708 9.8606C47.3183 9.86187 46.9293 9.8606 46.5205 9.8606C46.4486 10.1904 46.4562 10.4922 46.516 10.8303C46.7351 10.8335 46.9375 10.8373 47.14 10.8392C47.3062 10.8405 47.4724 10.836 47.6386 10.8418C47.7188 10.8443 47.8429 10.8099 47.8468 10.9373C47.8512 11.0888 47.7137 11.05 47.6258 11.0519C47.3718 11.0582 47.1177 11.0538 46.8637 11.0551C46.7956 11.0551 46.7268 11.057 46.6587 11.0601C46.5568 11.0646 46.4874 11.1124 46.4855 11.2187C46.4817 11.4893 46.4842 11.7605 46.4842 12.0585C46.6224 12.0661 46.7255 12.0763 46.8293 12.077C47.1521 12.0789 47.4743 12.077 47.7971 12.0782C47.8652 12.0782 47.9365 12.0712 48.0008 12.0891C48.0359 12.0986 48.0792 12.1515 48.0817 12.1877C48.0843 12.2253 48.0499 12.275 48.0168 12.3011C47.9907 12.3221 47.9423 12.3202 47.9041 12.3202C47.4055 12.3202 46.907 12.3202 46.4091 12.3176C46.3722 12.3176 46.3352 12.2998 46.2658 12.2813H46.2639Z" fill="#4F4844"/>
<path d="M51.5212 34.655C51.5289 34.7346 51.5359 34.8078 51.5473 34.9231H50.4579C50.4216 35.9202 50.463 36.8797 50.4337 37.8322C50.1943 37.8793 50.174 37.8704 50.1555 37.7042C50.1466 37.6272 50.1504 37.5482 50.1504 37.4705C50.1504 36.7784 50.1517 36.087 50.1491 35.3949C50.1491 35.251 50.1332 35.1071 50.1224 34.9314H49.0795V34.655H51.5212Z" fill="#4F4844"/>
<path d="M104.589 34.6486H107.014C107.02 34.7365 107.025 34.8097 107.033 34.9192H105.977C105.964 35.0624 105.944 35.1745 105.944 35.2866C105.942 36.0175 105.943 36.7491 105.942 37.48C105.942 37.5577 105.943 37.636 105.938 37.7137C105.927 37.8786 105.836 37.906 105.67 37.8417C105.665 37.7461 105.654 37.6424 105.654 37.5379C105.653 36.7968 105.654 36.0563 105.652 35.3152C105.652 35.2012 105.64 35.0873 105.632 34.9389C105.406 34.9326 105.204 34.9262 105.003 34.9224C104.915 34.9211 104.827 34.9326 104.74 34.9262C104.571 34.9141 104.562 34.8963 104.59 34.6479L104.589 34.6486Z" fill="#4F4844"/>
<path d="M39.2773 9.86085C39.0462 9.86085 38.852 9.86277 38.6585 9.85958C38.591 9.85831 38.519 9.8564 38.4592 9.83157C38.4286 9.81883 38.4063 9.75516 38.4051 9.71378C38.4038 9.68576 38.4407 9.63865 38.4687 9.63037C38.5235 9.61445 38.5846 9.61763 38.6426 9.61763C39.1506 9.617 39.6587 9.61763 40.1662 9.61763C40.2152 9.61763 40.2738 9.60299 40.3101 9.62464C40.3591 9.65393 40.3916 9.71123 40.4311 9.75707C40.3903 9.79082 40.3527 9.84748 40.3082 9.85321C40.1929 9.86786 40.0745 9.86022 39.9573 9.86085C39.8326 9.86085 39.7078 9.86085 39.5549 9.86085C39.5454 9.99775 39.532 10.1015 39.5314 10.2053C39.5295 10.7809 39.5301 11.3571 39.5301 11.9327C39.5301 11.9913 39.5327 12.0498 39.5288 12.1084C39.5238 12.1912 39.5499 12.3071 39.4155 12.3001C39.2901 12.2937 39.3105 12.1797 39.3073 12.0963C39.3022 11.9696 39.3054 11.8429 39.3054 11.7156C39.3054 11.2279 39.3066 10.7395 39.3041 10.2518C39.3034 10.1365 39.2882 10.0213 39.2761 9.86149L39.2773 9.86085Z" fill="#4F4844"/>
<path d="M109.233 37.8632H108.983C108.973 37.7836 108.956 37.7174 108.955 37.6518C108.954 36.7337 108.953 35.8162 108.955 34.8981C108.955 34.6409 108.961 34.6409 109.215 34.6593C109.276 34.8631 109.294 37.4322 109.233 37.8632Z" fill="#4F4844"/>
</svg>
