<svg width="140" height="39" viewBox="0 0 140 39" fill="none" xmlns="http://www.w3.org/2000/svg">
<path d="M20.0864 0.702148C20.0864 1.53415 20.0219 2.35315 19.9832 3.18515C19.9832 3.30215 19.9832 3.38015 20.138 3.39315H20.3702C20.5379 3.39315 20.6024 3.49715 20.5766 3.66615C20.4992 4.34215 20.4476 4.96615 20.3831 5.69415C20.3831 6.11015 20.3831 6.12315 20.7443 6.13615C21.1055 6.14915 21.1184 6.13615 21.17 5.74615C21.2345 5.08315 21.3377 4.44615 21.4151 3.77015C21.4151 3.56215 21.5183 3.44515 21.7634 3.52315C21.8449 3.52952 21.9269 3.52952 22.0085 3.52315C22.1633 3.52315 22.2278 3.52315 22.2535 3.32815C22.3567 2.66515 22.4857 2.02815 22.5889 1.33915C22.6663 0.910148 22.6663 0.910148 23.092 0.988148C23.5177 1.06615 23.9692 1.17015 24.382 1.28715C24.5626 1.28715 24.6013 1.43015 24.5497 1.61215L23.995 3.67915C23.9047 4.01715 23.9047 4.01715 24.2272 4.13415C24.5497 4.25115 24.5626 4.25115 24.7432 4.29015C24.9238 4.32915 24.9496 4.43315 24.8851 4.60215L24.124 6.70815C24.0466 6.87715 24.124 6.95515 24.253 7.00715C24.7432 7.20215 24.7432 7.18915 24.9367 6.69515C25.1302 6.20115 25.414 5.51215 25.6333 4.91415C25.7107 4.71915 25.8139 4.70615 25.9944 4.78415C26.5971 5.04885 27.1755 5.3664 27.723 5.73315C27.9036 5.85015 27.9939 5.85015 28.1229 5.64215C28.4841 5.04415 28.884 4.44615 29.2581 3.84815C29.3613 3.66615 29.4516 3.62715 29.6451 3.75715C30.4445 4.28289 31.1996 4.87423 31.9025 5.52515C32.0057 5.61615 32.0186 5.69415 31.9025 5.79815C31.3736 6.38315 30.8318 6.95515 30.3029 7.55315C30.161 7.70915 30.0578 7.55315 29.9675 7.55315C29.8772 7.55315 29.6967 7.38415 29.5419 7.55315C29.1033 8.09915 28.626 8.64515 28.1616 9.17815C28.0713 9.28215 28.0584 9.37315 28.1616 9.46415C28.5099 9.78915 28.8453 10.1271 29.1678 10.4911C29.1819 10.5126 29.2011 10.5302 29.2236 10.5424C29.2461 10.5545 29.2712 10.5609 29.2968 10.5609C29.3223 10.5609 29.3475 10.5545 29.37 10.5424C29.3925 10.5302 29.4116 10.5126 29.4258 10.4911L31.1801 9.10015C31.2041 9.08493 31.2239 9.06382 31.2376 9.03882C31.2513 9.01381 31.2584 8.98571 31.2584 8.95715C31.2584 8.92858 31.2513 8.90049 31.2376 8.87548C31.2239 8.85047 31.2041 8.82937 31.1801 8.81415C30.9608 8.59315 31.0253 8.43715 31.1801 8.25515C31.6961 7.78715 32.2121 7.30615 32.7152 6.81215C32.87 6.65615 32.9732 6.69515 33.0893 6.81215C33.5666 7.37115 34.0438 7.93015 34.4695 8.54115C34.5598 8.64515 34.5856 8.73615 34.4695 8.82715C33.8374 9.26915 33.1796 9.69815 32.5733 10.1271C32.3927 10.2571 32.3024 10.2181 32.1863 10.0361C32.0702 9.85415 32.0057 9.73715 31.7219 9.95815L30.1868 11.1411C30.0062 11.2841 29.9546 11.3881 30.1094 11.5961C30.5319 12.182 30.8949 12.8092 31.193 13.4681C31.2575 13.5981 31.3091 13.7021 31.4768 13.6111L33.3989 12.7011C33.6181 12.6101 33.6697 12.4801 33.5408 12.2851C33.2828 11.7391 33.2699 11.7391 33.7987 11.4531L35.4628 10.4001C35.6176 10.3091 35.7079 10.3221 35.7982 10.5041C36.0175 10.9721 36.2368 11.4271 36.469 11.8951C36.5593 12.0771 36.469 12.1551 36.3142 12.2201L34.3276 13.0521C34.1341 13.1301 34.0954 13.2211 34.1728 13.4161C34.4048 13.9786 34.5987 14.5563 34.7533 15.1451C34.7533 15.3661 34.7533 15.4571 34.5211 15.5091C33.8245 15.6651 33.128 15.8601 32.4314 16.0291C32.2637 16.0291 32.225 16.1461 32.2508 16.3021C32.3725 16.8424 32.4629 17.3893 32.5217 17.9401C32.5217 18.0961 32.612 18.1611 32.7668 18.1481L34.663 17.9921H34.8307C35.2564 17.9921 35.2822 17.9921 35.2693 18.3951C35.2693 18.6291 35.3725 18.6811 35.5789 18.6811L37.6041 18.5901C37.9782 18.5901 37.9911 18.5901 37.9911 18.9671C37.9911 19.3441 37.9911 19.4221 37.9911 19.6431C37.9911 19.8641 37.9008 19.9421 37.6815 19.9291H35.6821C35.2822 19.9291 35.2693 19.9291 35.2693 20.3191C35.2693 20.7091 35.2048 20.6311 34.9597 20.6051C34.2502 20.5271 33.5408 20.4881 32.8313 20.4231C32.6378 20.4231 32.5475 20.4231 32.5604 20.6701C32.5664 20.6958 32.5664 20.7225 32.5604 20.7481C32.5604 21.1381 32.5604 21.1381 32.9345 21.1901C33.6181 21.2551 34.2889 21.3461 34.9726 21.4241C35.1919 21.4241 35.2306 21.5411 35.1661 21.7231C35.1736 21.7705 35.1736 21.8188 35.1661 21.8661C35.0887 22.0611 35.1661 22.1391 35.3467 22.1781C36.0691 22.2951 36.7786 22.4511 37.488 22.5681C37.7202 22.5681 37.746 22.7111 37.7073 22.8931C37.5912 23.3611 37.488 23.8161 37.3719 24.2711C37.2559 24.7261 37.2688 24.5831 36.9592 24.4921C36.3271 24.3101 35.6692 24.1281 35.0629 23.9201C34.8178 23.8421 34.6888 23.9201 34.5985 24.1411C34.4308 24.6741 34.4179 24.6611 33.889 24.4531C33.3602 24.2451 32.7926 24.0501 32.2508 23.8681C31.9283 23.7511 31.8896 23.7641 31.7606 24.0761C31.6316 24.3881 31.5671 24.5311 32.0057 24.7391C32.4443 24.9471 33.1925 25.3241 33.7858 25.5971C33.9793 25.6881 33.9922 25.7921 33.9148 25.9611C33.6557 26.5204 33.3628 27.0631 33.0377 27.5861C32.8442 27.8981 32.8442 27.9111 33.1538 28.1191C33.7342 28.4961 34.3018 28.8861 34.8952 29.2501C35.05 29.3541 35.0758 29.4451 34.9726 29.6011C34.4409 30.4025 33.8456 31.1589 33.1925 31.8631C33.0893 31.9801 33.0248 32.0061 32.9087 31.8631L31.1801 30.2511C31.0898 30.1601 31.0769 30.0821 31.1801 29.9911C31.5542 29.5231 31.5671 29.5231 31.0898 29.1201C30.6125 28.7171 30.2255 28.3791 29.7999 28.0151C29.6322 27.8721 29.5806 27.7681 29.7999 27.5601C30.0837 27.2155 30.3424 26.8505 30.5738 26.4681C30.6512 26.3381 30.5738 26.2861 30.5093 26.2081C29.8772 25.8181 29.2194 25.4151 28.6389 25.0381C28.4583 24.9211 28.4325 24.8431 28.5357 24.6481C29.381 23.2039 29.8719 21.5771 29.9675 19.9031C30.0262 18.7412 29.8955 17.5775 29.5806 16.4581C29.5161 16.2241 29.5806 16.1331 29.787 16.0551L31.7348 15.2751C31.9154 15.2101 31.9799 15.1321 31.8896 14.9371C31.7993 14.7421 31.7348 14.5211 31.6574 14.3001C31.58 14.0791 31.5284 14.0921 31.3607 14.1701L29.6451 14.9241L29.5161 15.0021C29.1291 15.1581 29.1291 15.1581 28.9356 14.7941C28.1225 13.1029 26.8698 11.6653 25.3108 10.6341C25.1431 10.5171 25.1173 10.4261 25.2205 10.2311C25.5688 9.59415 25.8913 8.93115 26.2395 8.29415C26.3298 8.13815 26.304 8.06015 26.1492 7.98215C26.0004 7.91254 25.858 7.82989 25.7236 7.73515C25.543 7.61815 25.4398 7.63115 25.3366 7.83915C25.0528 8.46315 24.7432 9.06115 24.4336 9.67215C24.2659 9.99715 24.2659 9.99715 23.9176 9.84115C22.9827 9.41842 21.9921 9.13382 20.9765 8.99615C18.8906 8.68825 16.7613 9.03151 14.8748 9.97976C12.9883 10.928 11.4353 12.4357 10.4246 14.3001C9.72054 15.5194 9.28089 16.8752 9.1346 18.2781C8.96894 19.8061 9.14526 21.352 9.65058 22.8021C10.1004 24.0095 10.7648 25.124 11.6113 26.0911C12.6344 27.2995 13.9185 28.2556 15.3651 28.8861C16.5568 29.404 17.8347 29.6907 19.1318 29.7311C19.4801 29.7311 19.4801 29.7311 19.4801 30.1081C19.4801 30.7971 19.4801 31.4991 19.4801 32.2011C19.4801 32.4091 19.5704 32.4741 19.751 32.4611H20.4734C20.6282 32.4611 20.7056 32.4611 20.7185 32.6431C20.7185 33.1761 20.8217 33.6961 20.8733 34.2161C20.8733 34.4501 20.8733 34.6971 20.8733 34.9311C20.8733 35.1651 20.9636 35.1391 21.1184 35.1131L21.7505 35.0221C21.8924 35.0221 21.9569 35.0221 21.9827 35.1911C22.1504 35.9711 22.3051 36.7511 22.4728 37.5311C22.4728 37.7001 22.4728 37.7261 22.2922 37.7391L21.2216 37.8951C21.0797 37.8951 21.0281 37.8951 21.0152 37.7391C21.0152 37.3361 20.9249 36.9331 20.8733 36.5301C20.8217 36.1271 20.7701 35.8021 20.7314 35.4381C20.6927 35.0741 20.6282 35.1911 20.4605 35.2171H20.2283C19.751 35.2171 19.7639 35.2171 19.7897 35.7891C19.8155 36.3611 19.7897 37.2321 19.7897 37.9471H18.3966L17.1066 37.7781C15.6123 37.5994 14.147 37.228 12.7465 36.6731C8.2905 34.8993 4.6798 31.4699 2.65897 27.0921C1.85892 25.3482 1.33653 23.488 1.11101 21.5801C1.11101 21.5151 1.11101 21.3851 1.00781 21.3851V18.0181C1.08521 17.4201 1.14971 16.8091 1.25291 16.2111C1.59315 14.2114 2.25086 12.28 3.20075 10.4911C3.80938 9.36645 4.53126 8.30787 5.355 7.33215C5.9905 6.56748 6.68494 5.8546 7.43184 5.20015C8.2792 4.47506 9.18535 3.82277 10.1408 3.25015C10.9645 2.74735 11.8273 2.31259 12.7207 1.95015C13.8575 1.50471 15.0379 1.18223 16.2423 0.988148C16.8873 0.871148 17.5323 0.793148 18.1902 0.702148H20.0864Z" fill="#502D17"/>
<path d="M129.627 25.0514C128.081 25.1274 126.531 25.0665 124.996 24.8694C124.211 24.7719 123.443 24.5663 122.713 24.2584C122.117 24.02 121.59 23.6362 121.178 23.1415C120.766 22.6469 120.482 22.0568 120.352 21.4244C119.997 20.008 119.997 18.5249 120.352 17.1084C120.525 16.4188 120.875 15.787 121.366 15.2761C121.857 14.7651 122.473 14.3928 123.151 14.1964C124.232 13.8382 125.356 13.6325 126.492 13.5854C128.211 13.4819 129.934 13.4819 131.652 13.5854C132.826 13.6318 133.986 13.8508 135.096 14.2354C135.821 14.4716 136.466 14.9071 136.958 15.4928C137.451 16.0786 137.771 16.7912 137.883 17.5504C138.134 18.7768 138.134 20.042 137.883 21.2684C137.722 22.0589 137.338 22.7859 136.777 23.3623C136.217 23.9387 135.503 24.3401 134.722 24.5184C133.532 24.8456 132.306 25.0246 131.072 25.0514C130.607 25.0644 130.117 25.0514 129.627 25.0514ZM129.111 22.4514C130.159 22.4755 131.207 22.4146 132.246 22.2694C132.717 22.2361 133.161 22.0323 133.495 21.6955C133.829 21.3587 134.031 20.9116 134.064 20.4364C134.2 19.6886 134.2 18.9223 134.064 18.1744C134.013 17.8274 133.864 17.5025 133.635 17.2378C133.407 16.973 133.108 16.7793 132.774 16.6794C132.401 16.5651 132.016 16.4953 131.626 16.4714C130.336 16.3544 129.15 16.4064 127.911 16.4064C127.32 16.3936 126.729 16.4327 126.144 16.5234C125.883 16.5251 125.625 16.5786 125.385 16.6808C125.144 16.783 124.926 16.9319 124.743 17.119C124.56 17.3061 124.415 17.5277 124.317 17.7713C124.218 18.0148 124.169 18.2755 124.17 18.5384C124.112 19.0437 124.112 19.5541 124.17 20.0594C124.153 20.3418 124.192 20.6247 124.287 20.8913C124.381 21.1578 124.527 21.4023 124.718 21.6101C124.908 21.8179 125.139 21.9846 125.395 22.1001C125.651 22.2157 125.928 22.2777 126.209 22.2824C127.171 22.4023 128.142 22.4414 129.111 22.3994V22.4514Z" fill="#502D17"/>
<path d="M80.6406 19.3178V14.1178C80.6406 13.8968 80.6406 13.8448 80.8986 13.8448H90.3025C91.2509 13.8117 92.1978 13.9437 93.1017 14.2348C93.6049 14.3954 94.0583 14.6845 94.4177 15.0741C94.7771 15.4637 95.0304 15.9404 95.1527 16.4578C95.4495 17.5249 95.4495 18.6537 95.1527 19.7208C94.9791 20.3078 94.6451 20.8336 94.1889 21.2382C93.7326 21.6429 93.1726 21.9099 92.5728 22.0088C91.8352 22.1672 91.0823 22.2414 90.3283 22.2298H84.5621C84.3299 22.2298 84.2783 22.2298 84.2783 22.5158C84.2783 23.2048 84.2783 23.9068 84.2783 24.6088C84.2783 24.7908 84.2783 24.8558 84.0461 24.8558H80.8728C80.6793 24.8558 80.6406 24.7908 80.6406 24.5958V19.3178ZM87.3743 16.5878H84.5492C84.3428 16.5878 84.2783 16.5878 84.2783 16.8478C84.2783 17.7145 84.2783 18.5812 84.2783 19.4478C84.2783 19.6688 84.2783 19.7468 84.5621 19.7468H90.0445C90.2334 19.7602 90.4231 19.7602 90.6121 19.7468C90.8904 19.7301 91.151 19.6032 91.337 19.3938C91.523 19.1844 91.6194 18.9095 91.6053 18.6288C91.6311 18.3651 91.6311 18.0995 91.6053 17.8358C91.6014 17.5773 91.5055 17.3287 91.335 17.1355C91.1646 16.9422 90.9309 16.8171 90.6766 16.7828C90.5032 16.7412 90.3258 16.7194 90.1477 16.7178L87.3743 16.5878Z" fill="#502D17"/>
<path d="M64.1484 19.3179V14.1179C64.1484 13.9099 64.1484 13.8449 64.4064 13.8449H73.8232C74.627 13.8322 75.4291 13.9239 76.2096 14.1179C76.8598 14.2613 77.4488 14.6071 77.8932 15.1063C78.3377 15.6056 78.6152 16.233 78.6864 16.8999C78.841 17.7377 78.841 18.5971 78.6864 19.4349C78.5579 20.0912 78.2332 20.6921 77.7558 21.1569C77.2785 21.6217 76.6714 21.9281 76.0161 22.0349C75.2768 22.2104 74.518 22.289 73.7587 22.2689H68.0828C67.8506 22.2689 67.799 22.3339 67.799 22.5549C67.799 23.2569 67.799 23.9719 67.799 24.6739C67.799 24.8429 67.799 24.8949 67.5797 24.8949H64.3677C64.1613 24.8949 64.1484 24.8039 64.1484 24.6479V19.3179ZM70.9466 16.5879H68.0441C67.8635 16.5879 67.799 16.5879 67.799 16.8349C67.799 17.7016 67.799 18.5682 67.799 19.4349C67.799 19.6689 67.8764 19.7079 68.0828 19.7079H73.5265H74.0683C74.3285 19.7046 74.5773 19.5999 74.7625 19.4157C74.9477 19.2315 75.0549 18.9821 75.0615 18.7199C75.1001 18.4396 75.1001 18.1552 75.0615 17.8749C75.0735 17.5984 74.9821 17.3274 74.8053 17.1156C74.6286 16.9037 74.3793 16.7665 74.107 16.7309H73.591L70.9466 16.5879Z" fill="#502D17"/>
<path d="M44.8828 24.7908L46.8049 21.6968L51.5906 13.8968C51.6176 13.8309 51.6646 13.7754 51.7248 13.738C51.7851 13.7006 51.8555 13.6834 51.926 13.6888H55.7959C55.8589 13.6778 55.9237 13.6884 55.9799 13.7191C56.0361 13.7498 56.0803 13.7986 56.1055 13.8578L60.4398 20.8648L62.6972 24.5048C62.6972 24.5698 62.8391 24.6348 62.7875 24.7258C62.7359 24.8168 62.6327 24.7258 62.5424 24.7258H59.0337C58.9578 24.7338 58.8812 24.7181 58.8143 24.6809C58.7475 24.6438 58.6935 24.5868 58.6596 24.5178C58.4146 24.0888 58.1437 23.6728 57.8857 23.2178C57.8599 23.1611 57.8179 23.1134 57.765 23.0809C57.7121 23.0485 57.6508 23.0328 57.589 23.0358C55.009 23.0358 52.4291 23.0358 49.8492 23.0358C49.7855 23.0319 49.7221 23.0471 49.667 23.0795C49.6119 23.1119 49.5675 23.16 49.5396 23.2178C49.2816 23.6598 49.0107 24.0888 48.7398 24.5178C48.7398 24.6088 48.6366 24.6868 48.5076 24.6868H44.9473L44.8828 24.7908ZM51.3326 20.5528H51.4487H55.9894C56.2216 20.5528 56.1442 20.4618 56.0797 20.3448C55.3444 19.1618 54.6221 17.9788 53.8997 16.7958C53.7836 16.6008 53.732 16.6138 53.6159 16.7958C53.0354 17.7578 52.442 18.7068 51.8486 19.6688L51.3326 20.5528Z" fill="#502D17"/>
<path d="M104.334 13.8317H112.074C112.267 13.8317 112.345 13.8317 112.345 14.0787C112.345 14.8327 112.345 15.5867 112.345 16.3537C112.345 16.5747 112.345 16.6137 112.061 16.6137H106.553C106.166 16.6137 106.166 16.6137 106.166 17.0167C106.166 19.5257 106.166 22.0477 106.166 24.5567C106.166 24.7907 106.166 24.8427 105.882 24.8427H102.76C102.554 24.8427 102.489 24.8427 102.489 24.5697C102.489 21.9697 102.489 19.4737 102.489 16.9257C102.489 16.6787 102.489 16.6007 102.18 16.6007C100.348 16.6007 98.5034 16.6007 96.6717 16.6007C96.4008 16.6007 96.3363 16.5097 96.3492 16.2627C96.3492 15.5347 96.3492 14.8197 96.3492 14.0917C96.3492 13.8707 96.3492 13.8057 96.633 13.8057L104.334 13.8317Z" fill="#502D17"/>
<path d="M114.383 19.3185V14.1185C114.383 13.9365 114.383 13.8585 114.615 13.8715H117.814C118.021 13.8715 118.059 13.8715 118.059 14.1185V24.6355C118.059 24.8175 118.059 24.8825 117.827 24.8825H114.615C114.422 24.8825 114.383 24.8175 114.383 24.6355V19.3185Z" fill="#502D17"/>
<path d="M26.2533 30.6277C26.0931 30.6619 25.9429 30.7331 25.8147 30.8357C25.3116 31.0957 25.3116 31.0957 25.5825 31.5767L26.4726 33.2017C26.5757 33.3837 26.6789 33.4617 26.8724 33.3187L27.1562 33.1497C27.4916 32.9417 27.4916 32.9417 27.6851 33.2667C28.0334 33.8777 28.3817 34.4887 28.7558 35.0867C28.859 35.2687 28.8332 35.3597 28.6655 35.4507C28.2269 35.6847 27.7883 35.9317 27.3755 36.1527C27.2078 36.2307 27.1175 36.2307 27.0401 36.0357C26.7692 35.4247 26.4855 34.8007 26.2017 34.1897C26.034 33.7997 26.0469 33.7867 25.6599 33.9557C25.2729 34.1247 24.7053 34.3327 24.2151 34.4757C24.0603 34.4757 23.9958 34.4757 23.9442 34.3457C23.7249 33.5917 23.5056 32.8247 23.2734 32.0707C23.2734 31.9147 23.2734 31.8757 23.4282 31.8497C23.9928 31.6715 24.5444 31.4543 25.0794 31.1997C25.2471 31.1347 25.3116 31.0697 25.1955 30.8747C24.8343 30.2377 24.5118 29.5747 24.1506 28.9507C24.0603 28.7817 24.0474 28.6777 24.2538 28.5737C24.5004 28.4559 24.7339 28.3121 24.9504 28.1447C25.131 28.0147 25.2084 28.1447 25.2858 28.2357C25.6728 28.8597 26.0727 29.4577 26.4468 30.0947C26.5886 30.3157 26.7047 30.3027 26.8724 30.1727C27.2153 29.9434 27.5428 29.6915 27.8528 29.4187C27.9818 29.3017 28.0721 29.3017 28.1882 29.4187C28.6397 29.9647 29.117 30.4847 29.5685 31.0307C29.7104 31.1997 29.8265 31.2907 29.9942 31.0957C30.1619 30.9007 30.2522 30.9137 30.4327 31.0957C30.8971 31.6417 31.4002 32.1747 31.9033 32.6947C32.0323 32.8377 32.0581 32.9157 31.9033 33.0457C31.7485 33.1757 31.4647 33.4097 31.2712 33.6047C31.0777 33.7997 30.9874 33.6827 30.8842 33.5397C30.4456 32.9937 30.0071 32.4607 29.5943 31.9017C29.4524 31.7197 29.3363 31.6807 29.1428 31.9017C28.7544 32.2097 28.3496 32.4962 27.9302 32.7597C27.8012 32.8507 27.7238 32.8377 27.6335 32.6947C27.2723 32.0577 26.8853 31.3947 26.4984 30.8227C26.4081 30.7317 26.3694 30.6407 26.2533 30.6277Z" fill="#502D17"/>
<path d="M138.028 14.196C138.024 14.0852 138.043 13.9748 138.083 13.8715C138.123 13.7682 138.184 13.6743 138.261 13.5953C138.338 13.5162 138.43 13.4539 138.532 13.4119C138.634 13.3699 138.743 13.3492 138.853 13.351C139.023 13.3458 139.191 13.392 139.334 13.4837C139.478 13.5753 139.591 13.7082 139.659 13.8653C139.727 14.0223 139.747 14.1962 139.716 14.3647C139.685 14.5332 139.605 14.6885 139.486 14.8106C139.366 14.9327 139.214 15.016 139.047 15.0497C138.88 15.0835 138.707 15.0662 138.551 15.0001C138.394 14.934 138.26 14.8221 138.167 14.6788C138.074 14.5354 138.025 14.3673 138.028 14.196ZM138.157 14.196C138.157 14.3822 138.23 14.5607 138.361 14.6924C138.491 14.824 138.669 14.898 138.853 14.898C139.038 14.898 139.215 14.824 139.346 14.6924C139.477 14.5607 139.55 14.3822 139.55 14.196C139.547 14.0096 139.473 13.8315 139.343 13.6985C139.214 13.5655 139.038 13.4876 138.853 13.481C138.756 13.4756 138.658 13.4905 138.567 13.5249C138.475 13.5592 138.392 13.6122 138.322 13.6805C138.251 13.7489 138.196 13.8311 138.159 13.922C138.121 14.0129 138.103 14.1106 138.105 14.209L138.157 14.196Z" fill="#502D17"/>
<path d="M139.164 14.6641H139.048C139 14.6052 138.961 14.5395 138.932 14.4691C138.909 14.4128 138.865 14.3678 138.809 14.3435C138.754 14.3192 138.691 14.3177 138.635 14.3391C138.628 14.4344 138.628 14.5299 138.635 14.6251C138.635 14.6251 138.635 14.7161 138.557 14.7161C138.48 14.7161 138.493 14.7161 138.493 14.7161V13.9231V13.8581H138.867C138.896 13.8545 138.925 13.8567 138.953 13.8646C138.981 13.8724 139.007 13.8858 139.03 13.904C139.053 13.9221 139.072 13.9447 139.086 13.9703C139.1 13.9959 139.109 14.024 139.112 14.0531C139.12 14.0848 139.121 14.1178 139.115 14.1498C139.109 14.1819 139.096 14.2123 139.078 14.2392C139.06 14.2662 139.036 14.289 139.009 14.3062C138.981 14.3234 138.951 14.3346 138.919 14.3391L139.19 14.7291L139.164 14.6641ZM138.583 14.1701H138.88C138.906 14.1641 138.929 14.1492 138.946 14.1279C138.962 14.1066 138.971 14.0802 138.97 14.0531C138.975 14.0257 138.969 13.9976 138.955 13.9738C138.941 13.95 138.919 13.932 138.893 13.9231H138.583V14.1701Z" fill="#502D17"/>
</svg>
