<svg width="169" height="41" viewBox="0 0 169 41" fill="none" xmlns="http://www.w3.org/2000/svg">
<path d="M22.2405 38.3484L19.7385 37.993C15.8127 37.3878 12.1251 35.7544 9.06303 33.2644C8.1178 32.499 7.25599 31.6244 6.38027 30.7634C6.13559 30.5378 5.9671 30.244 5.89751 29.9214C5.82792 29.5989 5.86057 29.2631 5.99106 28.9594C7.00937 25.8855 8.58719 23.019 10.6477 20.4997C11.4847 19.3846 12.7133 18.6151 14.0949 18.3404C14.6959 18.2503 15.3096 18.2904 15.893 18.4581C16.4765 18.6257 17.0157 18.9167 17.4727 19.3107C18.4457 20.117 19.3215 21.0327 20.2528 21.8937L20.9756 22.5497C21.6567 21.552 22.3656 20.65 22.9216 19.6797C23.7418 18.313 24.4924 16.7687 25.2708 15.32C25.4002 15.0258 25.6049 14.7694 25.8649 14.5759C26.1248 14.3824 26.4313 14.2583 26.7545 14.2157C27.0776 14.1731 27.4065 14.2133 27.7092 14.3326C28.0119 14.4519 28.278 14.6461 28.4818 14.8964C28.7048 15.1329 28.8525 15.4285 28.9069 15.7466C28.9612 16.0647 28.9197 16.3915 28.7876 16.6867C27.5673 19.6612 25.8787 22.4283 23.7835 24.8867C23.4517 25.3478 23.0121 25.7238 22.5017 25.983C21.9913 26.2423 21.425 26.3772 20.8505 26.3764C19.8544 26.2745 18.9255 25.8348 18.2233 25.1327C17.2503 24.2444 16.3329 23.2877 15.3321 22.3994C14.7622 21.8937 14.4424 21.8937 13.942 22.495C13.1729 23.4198 12.4715 24.3972 11.8431 25.4197C11.1481 26.5814 10.5921 27.8113 9.95265 29.0414C11.325 30.4403 12.9216 31.6084 14.6788 32.499C18.098 34.1629 21.9131 34.8809 25.7156 34.5763C28.3956 34.4928 31.0497 34.0325 33.5971 33.2097C35.8183 32.5534 37.7919 31.2646 39.2684 29.506C39.479 29.2265 39.5823 28.8828 39.5603 28.5357C39.0588 23.7408 37.5841 19.0936 35.2234 14.869C33.9459 12.44 32.1027 10.3421 29.844 8.74635C27.8026 7.389 25.3491 6.76182 22.8938 6.96968C17.2364 7.35235 13.2609 10.359 10.1751 14.7597C8.46165 17.2591 7.09217 19.9704 6.10226 22.823C5.65745 24.053 5.07364 24.504 4.03111 24.4767C3.75289 24.4653 3.48081 24.3927 3.23489 24.2642C2.98897 24.1358 2.77547 23.9548 2.6101 23.7345C2.44473 23.5142 2.33171 23.2603 2.27933 22.9914C2.22696 22.7225 2.23658 22.4454 2.30747 22.1807C3.62785 18.1576 5.62985 14.3826 8.22901 11.015C10.2922 8.26436 13.0595 6.09999 16.2495 4.74202C20.1803 2.9642 24.6499 2.71518 28.7598 4.04502C31.4934 5.04436 33.8969 6.75995 35.7099 9.00602C39.1661 13.2864 41.513 18.3282 42.5489 23.6977C42.9103 25.2694 43.0632 26.8684 43.3134 28.4537C43.349 28.5652 43.3907 28.6747 43.4385 28.7817V29.9844C42.4225 31.8852 40.9237 33.4953 39.0877 34.6584C35.8745 36.6372 32.2206 37.8191 28.4401 38.1023L26.1604 38.3484H22.2405Z" fill="#502D17"/>
<path d="M60.2986 20.2674L61.1604 20.4997C61.9069 20.7443 62.5527 21.22 63.0013 21.8556C63.4498 22.4912 63.6769 23.2526 63.6485 24.0257C63.7473 24.7921 63.646 25.5706 63.3542 26.2879C63.0624 27.0052 62.5896 27.6377 61.9805 28.1257C60.9723 28.8388 59.7612 29.2213 58.5193 29.219C55.7393 29.219 53.0982 29.219 50.332 29.219V12.0264H50.9436C53.1677 12.0264 55.3917 12.0264 57.6158 12.0264C58.5309 12.0598 59.4376 12.2114 60.3125 12.4774C61.0185 12.6651 61.6508 13.0576 62.1268 13.6036C62.6028 14.1496 62.9006 14.8239 62.9813 15.5387C63.2871 17.575 62.8006 19.3517 60.5766 20.1307C60.4786 20.1651 60.3853 20.211 60.2986 20.2674ZM54.2102 26.718C55.5307 26.6224 56.8652 26.6224 58.144 26.4037C59.2004 26.226 59.6591 25.447 59.7564 24.217C59.8322 23.7299 59.7372 23.2318 59.4872 22.8047C59.2371 22.3776 58.8468 22.0467 58.3803 21.8664C56.958 21.5243 55.4883 21.4135 54.0295 21.5384V26.2534C54.0785 26.4123 54.1389 26.5675 54.2102 26.718ZM54.2102 14.7734C54.2102 16.14 54.2102 17.5067 54.2102 18.8734C54.2102 18.9554 54.2102 19.1194 54.5021 19.1194C55.5691 19.1446 56.6366 19.1081 57.6992 19.01C58.8529 18.8597 59.3672 18.0807 59.3533 16.8507C59.3863 16.6105 59.3685 16.3662 59.3011 16.133C59.2337 15.8999 59.1181 15.6829 58.9616 15.4957C58.805 15.3084 58.6109 15.1549 58.3913 15.0447C58.1717 14.9346 57.9314 14.8701 57.6853 14.8554C56.4877 14.7621 55.2858 14.7347 54.0851 14.7734H54.2102Z" fill="#502D17"/>
<path d="M143.022 29.2874H139.533C139.533 29.0551 139.533 28.8364 139.533 28.6178V21.9348C139.533 21.6432 139.533 21.3562 139.533 21.0738C139.553 20.6163 139.404 20.1671 139.112 19.81C138.821 19.4529 138.407 19.2123 137.948 19.1331C137.429 19.0094 136.882 19.0623 136.398 19.2832C135.913 19.5041 135.519 19.8799 135.279 20.3494C135.074 20.8826 134.966 21.4469 134.959 22.0168C134.959 24.4084 134.959 26.8138 134.959 29.2601H131.484V16.5911H134.932V18.1628C135.388 17.571 135.973 17.0871 136.644 16.7465C137.315 16.406 138.055 16.2175 138.81 16.1948C139.597 16.125 140.386 16.305 141.061 16.7083C141.737 17.1117 142.263 17.7172 142.563 18.4361C142.636 18.2822 142.725 18.1358 142.827 17.9988C143.452 17.249 144.286 16.6945 145.227 16.4033C146.167 16.112 147.174 16.0965 148.123 16.3588C148.899 16.5476 149.594 16.9734 150.109 17.575C150.623 18.1766 150.931 18.923 150.987 19.7071C151.063 20.2003 151.105 20.698 151.112 21.1968V29.2738H147.595C147.595 29.0688 147.595 28.8364 147.595 28.6178C147.595 26.3764 147.595 24.1351 147.595 21.8801C147.595 21.6614 147.595 21.4291 147.595 21.1968C147.595 19.9121 146.955 19.2288 145.871 19.1058C145.305 19.017 144.726 19.1347 144.242 19.4367C143.758 19.7388 143.403 20.2044 143.244 20.7458C143.142 21.1339 143.096 21.534 143.105 21.9348C143.105 24.1624 143.105 26.3901 143.105 28.6178L143.022 29.2874Z" fill="#502D17"/>
<path d="M157.073 27.4702V33.6475H153.598V16.5915H157.059V18.3682C157.155 18.2996 157.243 18.2217 157.323 18.1358C157.885 17.4307 158.627 16.8838 159.473 16.5501C160.318 16.2165 161.239 16.108 162.141 16.2355C163.043 16.363 163.895 16.722 164.611 17.2764C165.327 17.8307 165.882 18.5609 166.219 19.3932C166.76 20.6047 167.012 21.9222 166.954 23.2443C166.896 24.5664 166.531 25.8578 165.886 27.0192C165.498 27.659 164.976 28.2102 164.355 28.6359C163.733 29.0616 163.027 29.3521 162.282 29.4879C161.538 29.6237 160.772 29.6018 160.037 29.4235C159.301 29.2453 158.613 28.9148 158.018 28.4542C157.643 28.1945 157.392 27.8802 157.073 27.4702ZM163.383 22.8098C163.355 22.0789 163.185 21.3599 162.883 20.6915C162.708 20.1633 162.365 19.7044 161.904 19.3821C161.444 19.0599 160.89 18.8913 160.325 18.9012C159.726 18.8174 159.115 18.9283 158.586 19.2169C158.057 19.5055 157.638 19.9561 157.392 20.5002C157.053 21.2364 156.877 22.0355 156.877 22.844C156.877 23.6525 157.053 24.4516 157.392 25.1878C157.635 25.7447 158.059 26.2065 158.597 26.5009C159.135 26.7953 159.758 26.9055 160.367 26.8142C160.96 26.8183 161.537 26.6285 162.007 26.2746C162.478 25.9208 162.815 25.4231 162.966 24.8598C163.195 24.1996 163.312 23.5072 163.314 22.8098H163.383Z" fill="#502D17"/>
<path d="M102.667 23.7255H93.5346C93.4278 24.3575 93.5413 25.0064 93.8567 25.5671C94.1721 26.1277 94.6708 26.5672 95.2721 26.8142C95.7094 27.0064 96.1831 27.1058 96.6621 27.1058C97.1412 27.1058 97.6148 27.0064 98.0522 26.8142C98.5069 26.5718 98.8864 26.2129 99.1503 25.7755C99.3588 25.4612 99.4978 25.2972 99.887 25.3108C100.804 25.3108 101.708 25.3108 102.667 25.3108C102.545 26.4162 102.004 27.4359 101.152 28.1672C99.6441 29.2437 97.7872 29.7395 95.9326 29.5607C94.0781 29.3818 92.3545 28.5408 91.0881 27.1968C90.1766 25.8596 89.7241 24.2709 89.7966 22.6627C89.8691 21.0546 90.4629 19.5114 91.4912 18.2588C92.557 17.1898 93.9503 16.4945 95.4571 16.2797C96.9639 16.0649 98.5007 16.3425 99.8314 17.0698C100.716 17.6242 101.438 18.3964 101.926 19.3098C102.414 20.2231 102.65 21.246 102.611 22.2768C102.695 22.7278 102.667 23.2335 102.667 23.7255ZM93.5067 21.5525H99.1781C99.2237 21.1813 99.188 20.8048 99.0736 20.4483C98.9592 20.0917 98.7685 19.7633 98.5145 19.4851C98.2605 19.2069 97.9489 18.9852 97.6007 18.835C97.2524 18.6848 96.8756 18.6095 96.4953 18.6142C95.7027 18.6142 94.9425 18.9237 94.3821 19.4748C93.8216 20.0258 93.5067 20.7732 93.5067 21.5525Z" fill="#502D17"/>
<path d="M128.912 29.2739H125.492V27.8389C125.155 28.2934 124.725 28.6731 124.229 28.9533C123.734 29.2335 123.184 29.4079 122.615 29.4652C121.683 29.5281 120.748 29.4637 119.835 29.2739C119.137 29.1214 118.512 28.7439 118.059 28.2014C117.605 27.659 117.35 26.9828 117.333 26.2809C117.206 25.5635 117.314 24.8252 117.642 24.172C117.969 23.5189 118.498 22.9845 119.153 22.6455C120.451 22.0214 121.88 21.7076 123.324 21.7299C124.005 21.7299 124.714 21.7299 125.534 21.7299C125.47 21.056 125.349 20.3885 125.172 19.7345C124.839 18.8599 124.019 18.7369 123.171 18.7642C122.757 18.7305 122.344 18.8369 122 19.0655C121.656 19.2942 121.402 19.6315 121.28 20.0215C121.267 20.1228 121.233 20.2202 121.179 20.3074C121.126 20.3947 121.054 20.4698 120.968 20.5279C120.883 20.5859 120.786 20.6256 120.684 20.6443C120.582 20.6631 120.478 20.6604 120.377 20.6365C119.529 20.6365 118.667 20.6365 117.75 20.6365C117.758 19.9768 117.924 19.3283 118.236 18.744C118.547 18.1597 118.995 17.6561 119.543 17.2745C121.01 16.3635 122.759 15.9953 124.477 16.2359C124.767 16.2512 125.055 16.2878 125.339 16.3452C126.349 16.4753 127.275 16.9641 127.943 17.7193C128.612 18.4746 128.976 19.4442 128.967 20.4452C128.967 23.3015 128.967 26.1715 128.967 29.0279C128.964 29.1125 128.945 29.1959 128.912 29.2739ZM125.381 23.6842C124.255 23.7935 123.129 23.9029 122.003 24.0395C121.775 24.0946 121.562 24.1971 121.378 24.3402C121.121 24.5183 120.927 24.7705 120.822 25.0619C120.717 25.3532 120.707 25.6694 120.794 25.9665C120.843 26.2342 120.973 26.4812 121.166 26.676C121.359 26.8707 121.607 27.0044 121.878 27.0599C122.358 27.2086 122.871 27.2262 123.361 27.1108C123.85 26.9954 124.299 26.7514 124.659 26.4048C125.019 26.0581 125.276 25.6219 125.403 25.1427C125.53 24.6636 125.522 24.1594 125.381 23.6842Z" fill="#502D17"/>
<path d="M76.3139 29.2878H72.95V27.9211C72.2473 28.6991 71.3193 29.2471 70.2905 29.4914C69.2618 29.7357 68.1817 29.6646 67.1953 29.2878C66.5158 29.1155 65.9121 28.7301 65.4756 28.1899C65.0391 27.6498 64.7937 26.9844 64.7766 26.2948C64.653 25.5864 64.7597 24.8577 65.0817 24.2123C65.4036 23.567 65.9243 23.038 66.5698 22.7004C67.8595 22.053 69.292 21.729 70.7399 21.7574C71.421 21.7574 72.1299 21.7574 72.7693 21.7574C73.3392 19.7894 72.0326 18.3954 69.9892 18.8601C69.6537 18.9434 69.3473 19.1145 69.1026 19.3551C68.8579 19.5957 68.684 19.8969 68.5992 20.2268C68.5992 20.3771 68.3629 20.6094 68.2378 20.6231C67.237 20.6231 66.2501 20.6231 65.1658 20.6231C65.1837 19.5646 65.594 18.549 66.3196 17.7668C67.1486 16.9546 68.2511 16.4685 69.4193 16.4001C70.4267 16.2976 71.4422 16.2976 72.4496 16.4001C72.9796 16.416 73.5013 16.5348 73.9843 16.7499C74.4674 16.9649 74.9024 17.2719 75.2643 17.653C75.6261 18.0342 75.9076 18.482 76.0925 18.9707C76.2774 19.4593 76.3621 19.9791 76.3417 20.5001C76.439 23.3974 76.3417 26.2948 76.3417 29.1921C76.3342 29.2245 76.3249 29.2564 76.3139 29.2878ZM72.8249 23.7118C71.7685 23.7118 70.7399 23.8348 69.7251 23.9441C69.4191 24.0053 69.127 24.1211 68.8633 24.2858C68.6039 24.4437 68.4013 24.6777 68.2842 24.9547C68.167 25.2317 68.141 25.5379 68.21 25.8301C68.242 26.1169 68.3654 26.3864 68.5627 26.5999C68.7599 26.8135 69.0209 26.9602 69.3081 27.0191C71.5322 27.6068 73.089 26.2128 72.8249 23.7118Z" fill="#502D17"/>
<path d="M88.4032 20.1303C87.3607 20.1303 86.346 20.1303 85.3451 20.1303C85.2339 20.1303 85.1088 19.9116 85.0393 19.775C84.8907 19.4928 84.681 19.2462 84.4249 19.0524C84.1688 18.8586 83.8726 18.7224 83.5572 18.6533C83.2418 18.5843 82.9148 18.584 82.5993 18.6527C82.2838 18.7213 81.9874 18.8572 81.731 19.0506C81.573 19.1637 81.4494 19.3171 81.3737 19.4943C81.298 19.6716 81.2732 19.8658 81.3018 20.0559C81.3305 20.246 81.4115 20.4248 81.5362 20.5728C81.6609 20.7209 81.8244 20.8325 82.0091 20.8956C82.857 21.169 83.7466 21.2783 84.6223 21.4833C85.1227 21.5926 85.6092 21.6883 86.0957 21.8386C88.3615 22.5493 88.8758 24.0253 88.6812 26.0753C88.6155 26.7904 88.3284 27.4686 87.8587 28.0184C87.389 28.5682 86.7591 28.9632 86.054 29.1503C84.2271 29.7784 82.2375 29.7784 80.4105 29.1503C79.6178 28.8687 78.9391 28.3425 78.4756 27.6503C78.0121 26.9582 77.7888 26.1372 77.839 25.31C78.8676 25.31 79.8823 25.31 80.9109 25.31C81.0082 25.31 81.1472 25.5286 81.1889 25.679C81.3448 26.0205 81.5774 26.3229 81.8694 26.5632C82.1613 26.8035 82.5049 26.9755 82.8743 27.0663C83.2437 27.1571 83.6292 27.1643 84.0018 27.0873C84.3744 27.0104 84.7244 26.8512 85.0254 26.622C85.1659 26.4969 85.2738 26.3405 85.3399 26.1659C85.406 25.9913 85.4284 25.8036 85.4052 25.6186C85.3821 25.4337 85.314 25.257 85.2068 25.1034C85.0995 24.9497 84.9563 24.8237 84.7891 24.736C84.2973 24.5133 83.7789 24.3526 83.2462 24.2576C82.2732 24.0116 81.2862 23.8613 80.341 23.5743C79.7187 23.4113 79.1647 23.0593 78.7578 22.5685C78.351 22.0777 78.1121 21.4731 78.0753 20.841C77.9502 20.1802 78.014 19.4984 78.2594 18.8711C78.5047 18.2438 78.9222 17.6957 79.4653 17.2876C80.7779 16.416 82.3733 16.0555 83.9412 16.2763C84.561 16.3353 85.1719 16.4637 85.7621 16.659C86.5057 16.9104 87.1552 17.3759 87.6261 17.9949C88.0971 18.614 88.3679 19.358 88.4032 20.1303Z" fill="#502D17"/>
<path d="M116.44 21.1416C115.356 21.1416 114.327 21.1416 113.298 21.1416C113.201 21.1416 113.048 20.9366 113.006 20.7999C112.903 20.3377 112.657 19.9185 112.301 19.6002C111.944 19.2819 111.497 19.0803 111.019 19.0233C110.479 18.9043 109.916 18.9461 109.401 19.1433C108.886 19.3405 108.443 19.6841 108.127 20.1303C107.639 20.9835 107.376 21.944 107.364 22.9232C107.352 23.9024 107.59 24.8689 108.058 25.7336C108.386 26.2067 108.854 26.57 109.398 26.7752C109.942 26.9803 110.536 27.0174 111.102 26.8816C111.612 26.813 112.087 26.5909 112.463 26.2459C112.839 25.9008 113.097 25.4497 113.201 24.9546L113.326 24.5173H116.509C116.494 25.4151 116.226 26.2913 115.735 27.0487C115.245 27.8061 114.55 28.4152 113.729 28.8086C112.679 29.3343 111.516 29.6083 110.338 29.6083C109.159 29.6083 107.997 29.3343 106.946 28.8086C106.098 28.415 105.368 27.8134 104.825 27.0618C104.282 26.3103 103.945 25.434 103.846 24.5173C103.567 23.3411 103.596 22.1143 103.932 20.9524C104.267 19.7904 104.898 18.7315 105.764 17.8753C106.989 16.864 108.519 16.2773 110.116 16.2057C111.714 16.134 113.292 16.5815 114.605 17.4789C115.156 17.9277 115.605 18.486 115.921 19.1172C116.237 19.7485 116.414 20.4384 116.44 21.1416Z" fill="#502D17"/>
</svg>
