<svg width="162" height="39" viewBox="0 0 162 39" fill="none" xmlns="http://www.w3.org/2000/svg">
<path d="M27.929 2.73242C27.929 2.79271 28.0377 2.73242 28.0982 2.80477C28.4177 2.90046 28.6966 3.09906 28.8911 3.36955C29.0856 3.64004 29.185 3.9672 29.1736 4.29995C29.1736 4.6014 29.1736 4.90285 29.1736 5.21636C29.1678 5.27624 29.1826 5.33631 29.2155 5.38671C29.2484 5.4371 29.2976 5.47482 29.3548 5.49369C30.1589 5.85461 30.8468 6.43126 31.3418 7.15939C31.8367 7.88752 32.1193 8.73851 32.1581 9.61751C32.1702 9.83438 32.1702 10.0518 32.1581 10.2686V29.9834C32.1851 30.707 32.0829 31.4297 31.856 32.1176C31.603 32.7978 31.1917 33.4082 30.656 33.8988C30.1203 34.3893 29.4756 34.7459 28.7748 34.9392C28.4773 35.0391 28.1691 35.1039 27.8565 35.1321C27.8565 35.1321 27.7477 35.1321 27.7236 35.1924H6.62629C6.52194 35.1799 6.41647 35.1799 6.31213 35.1924C5.55227 35.1312 4.82062 34.8776 4.18633 34.4556C3.55204 34.0336 3.03606 33.4572 2.68716 32.7808C2.23986 31.9469 2.01125 31.0136 2.02259 30.0678V10.7751C1.99247 10.3174 1.99247 9.85817 2.02259 9.40046C2.06839 8.65319 2.30291 7.92964 2.70432 7.29715C3.10574 6.66466 3.66099 6.14381 4.3184 5.78308C5.16447 5.30248 6.12411 5.05682 7.09754 5.07166C11.9308 5.07166 16.7641 5.07166 21.5974 5.07166C21.6819 5.0777 21.7667 5.0777 21.8511 5.07166C22.0203 5.07166 22.2499 5.14401 22.3707 5.07166C22.4915 4.99931 22.3707 4.73404 22.3707 4.56523C22.3707 4.39642 22.3707 4.26378 22.3707 4.11909C22.404 3.84844 22.5121 3.59237 22.6828 3.37944C22.8535 3.16652 23.0801 3.00513 23.3374 2.91329C23.422 2.91329 23.5307 2.91329 23.5911 2.80477L27.929 2.73242ZM17.0541 9.59339C16.2832 9.58294 15.5135 9.65571 14.7583 9.81043C12.1587 10.3882 9.87487 11.9269 8.36615 14.1171C6.85743 16.3072 6.23579 18.9862 6.62629 21.6152C6.9651 23.9755 8.09598 26.1513 9.83419 27.7874C11.5724 29.4234 13.8152 30.4228 16.1962 30.6224C17.5697 30.7407 18.9531 30.5891 20.2682 30.1763C20.3956 30.1488 20.5153 30.094 20.6192 30.0155C20.723 29.937 20.8084 29.8368 20.8694 29.722C20.9304 29.6071 20.9655 29.4804 20.9723 29.3506C20.9791 29.2208 20.9573 29.0911 20.9086 28.9705C20.667 28.1988 20.4132 27.4391 20.1716 26.6674C20.0986 26.4459 19.9486 26.2577 19.7487 26.1369C19.6191 26.0805 19.4792 26.0513 19.3378 26.0513C19.1964 26.0513 19.0566 26.0805 18.927 26.1369C17.981 26.4294 16.9792 26.4955 16.0029 26.3298C14.5456 26.0811 13.2244 25.3238 12.2749 24.1929C11.3254 23.0621 10.8095 21.6314 10.8192 20.1561C10.7972 19.1606 11.0257 18.1754 11.4837 17.2907C11.9418 16.406 12.6148 15.65 13.4412 15.0918C14.2175 14.521 15.1181 14.1416 16.0694 13.9844C17.0207 13.8272 17.9957 13.8968 18.9149 14.1875C19.0406 14.2447 19.1777 14.2728 19.3158 14.2698C19.4539 14.2668 19.5896 14.2328 19.7127 14.1702C19.8358 14.1076 19.9432 14.0181 20.0268 13.9083C20.1104 13.7986 20.1682 13.6714 20.1957 13.5363C20.4253 12.8129 20.6428 12.0894 20.8966 11.39C20.9493 11.2641 20.974 11.1282 20.9689 10.9918C20.9638 10.8555 20.9289 10.7218 20.8669 10.6002C20.8048 10.4786 20.7169 10.3719 20.6094 10.2876C20.5018 10.2033 20.3772 10.1433 20.2441 10.1119C19.207 9.78722 18.1287 9.61261 17.042 9.59339H17.0541ZM26.8415 16.2253C26.8421 16.0803 26.8077 15.9373 26.7413 15.8084C26.6749 15.6794 26.5784 15.5683 26.4599 15.4844C26.3415 15.4004 26.2045 15.3462 26.0606 15.3261C25.9168 15.3061 25.7701 15.3208 25.6332 15.3691C24.8478 15.7068 24.0624 16.0564 23.289 16.4182C23.0815 16.5177 22.9205 16.6932 22.8394 16.9082C22.7584 17.1232 22.7635 17.3612 22.8538 17.5725C22.9441 17.7838 23.1126 17.9522 23.3242 18.0426C23.5359 18.1331 23.7743 18.1386 23.9899 18.0581C24.7994 17.7204 25.5849 17.3587 26.4065 16.997C26.5413 16.9196 26.652 16.8066 26.7267 16.6704C26.8013 16.5343 26.8368 16.3803 26.8294 16.2253H26.8415ZM23.5428 12.0773C23.4136 12.0856 23.2876 12.121 23.173 12.1812C23.0585 12.2415 22.958 12.3253 22.8782 12.427L21.3678 14.0548L21.1261 14.2719C21.0384 14.3896 20.9806 14.5269 20.9579 14.672C20.9352 14.817 20.9482 14.9653 20.9957 15.1042C21.0433 15.2431 21.1241 15.3683 21.231 15.4691C21.3379 15.5699 21.4678 15.6432 21.6095 15.6827C21.7771 15.7296 21.9548 15.7261 22.1204 15.6724C22.2859 15.6188 22.4319 15.5175 22.5399 15.3812L24.1469 13.6087C24.1977 13.5578 24.2423 13.5011 24.2799 13.4399C24.3693 13.3015 24.4169 13.1403 24.4169 12.9756C24.4169 12.811 24.3693 12.6498 24.2799 12.5114C24.204 12.3826 24.0966 12.2751 23.9676 12.1992C23.8387 12.1232 23.6925 12.0813 23.5428 12.0773ZM23.7482 22.1457C23.5438 22.1433 23.3443 22.2081 23.1805 22.3301C23.0167 22.4522 22.8977 22.6247 22.842 22.821C22.7866 23.0275 22.8074 23.247 22.9005 23.4395C22.9936 23.632 23.153 23.7848 23.3495 23.87L25.5849 24.8587C25.7457 24.938 25.9279 24.9634 26.1044 24.9311C26.2901 24.8944 26.4602 24.8019 26.5919 24.6662C26.7236 24.5305 26.8107 24.3579 26.8415 24.1714C26.8732 23.9792 26.8392 23.782 26.7449 23.6114C26.6507 23.4408 26.5017 23.3068 26.3219 23.2309C25.5848 22.8812 24.8357 22.5557 24.0865 22.2301C23.9624 22.1835 23.8322 22.1551 23.6999 22.1457H23.7482ZM21.9599 24.5573C21.7918 24.5541 21.6262 24.599 21.4828 24.6866C21.3394 24.7742 21.224 24.9008 21.1503 25.0517C21.0643 25.2092 21.0308 25.3899 21.0547 25.5677C21.0786 25.7455 21.1587 25.9111 21.2832 26.0404C21.827 26.6674 22.3828 27.2462 22.9386 27.8853C23.0989 28.0612 23.3225 28.1663 23.5605 28.1776C23.7984 28.189 24.0311 28.1055 24.2074 27.9456C24.3836 27.7857 24.489 27.5625 24.5003 27.325C24.5117 27.0876 24.428 26.8554 24.2678 26.6795C23.724 26.0525 23.1682 25.4737 22.6124 24.8346C22.5233 24.7404 22.4139 24.6675 22.2925 24.6216C22.1711 24.5756 22.0409 24.5578 21.9116 24.5694L21.9599 24.5573ZM25.5849 21.0123C26.0319 21.0123 26.479 21.0123 26.9382 21.0123C27.1669 20.9968 27.3802 20.8918 27.5318 20.7202C27.6834 20.5486 27.761 20.3242 27.7477 20.0959C27.7418 19.8727 27.6511 19.6602 27.4941 19.5013C27.3371 19.3423 27.1254 19.2488 26.9019 19.2397H24.2074C23.9897 19.2651 23.7889 19.3694 23.6432 19.5328C23.4975 19.6962 23.417 19.9073 23.417 20.126C23.417 20.3447 23.4975 20.5558 23.6432 20.7192C23.7889 20.8826 23.9897 20.9869 24.2074 21.0123C24.6424 21.0364 25.0774 21.0243 25.5244 21.0243L25.5849 21.0123Z" fill="#502D17"/>
<path d="M159.409 28.2281C159.356 28.4266 159.261 28.6116 159.131 28.7707C159.019 28.8978 158.881 29 158.727 29.0706C158.573 29.1413 158.406 29.1788 158.237 29.1807H156.46C156.14 29.1807 155.833 29.0536 155.606 28.8275C155.379 28.6014 155.252 28.2947 155.252 27.9749V6.19824C155.249 5.89968 155.364 5.6119 155.572 5.39742C155.78 5.18293 156.065 5.05907 156.364 5.05273C156.992 5.05273 157.62 5.05273 158.249 5.05273C158.496 5.05901 158.733 5.14626 158.926 5.30101C159.118 5.45576 159.254 5.66938 159.312 5.90885C159.312 5.90885 159.312 5.90885 159.312 5.99325L159.409 28.2281Z" fill="#502D17"/>
<path d="M70.5683 23.6152C70.5683 25.026 70.5683 26.4367 70.5683 27.8475C70.5841 28.1875 70.4671 28.5203 70.242 28.776C70.1332 28.8965 70.0011 28.9938 69.8537 29.0622C69.7063 29.1306 69.5466 29.1686 69.3841 29.1739C68.8645 29.1739 68.3449 29.1739 67.8133 29.1739C67.5531 29.1726 67.3024 29.0762 67.1087 28.9029C66.9149 28.7296 66.7916 28.4914 66.762 28.2334C66.7115 27.7568 66.6914 27.2776 66.7016 26.7985C66.7076 26.7021 66.7076 26.6055 66.7016 26.5091C66.7016 26.4488 66.7016 26.3765 66.6291 26.3523C66.5566 26.3282 66.4841 26.3523 66.4358 26.4247L66.2908 26.5935C65.7985 27.265 65.1776 27.8323 64.4641 28.2628C63.7507 28.6933 62.9587 28.9784 62.1342 29.1016C60.748 29.3554 59.3197 29.2491 57.9866 28.793C56.6534 28.3368 55.4603 27.5462 54.5218 26.497C53.1882 25.1193 52.3399 23.3459 52.1051 21.4448C51.8987 20.1806 51.9574 18.8875 52.2774 17.6471C52.5974 16.4067 53.1717 15.2461 53.9642 14.2385C54.7566 13.2309 55.7498 12.3983 56.8811 11.7934C58.0125 11.1884 59.2572 10.8242 60.5368 10.7238C61.8163 10.6234 63.1029 10.789 64.315 11.21C65.5272 11.6311 66.6386 12.2985 67.5791 13.1701C68.5196 14.0417 69.2687 15.0985 69.7791 16.2737C70.2894 17.4489 70.5499 18.717 70.5441 19.9978C70.5441 21.2036 70.5441 22.4094 70.5441 23.6152H70.5683ZM61.3125 14.8852C59.9889 14.9492 58.7407 15.519 57.8266 16.4764C56.9125 17.4338 56.4026 18.7055 56.4026 20.028C56.4026 21.3504 56.9125 22.6221 57.8266 23.5795C58.7407 24.5369 59.9889 25.1067 61.3125 25.1707C62.6361 25.1067 63.8844 24.5369 64.7985 23.5795C65.7125 22.6221 66.2224 21.3504 66.2224 20.028C66.2224 18.7055 65.7125 17.4338 64.7985 16.4764C63.8844 15.519 62.6361 14.9492 61.3125 14.8852Z" fill="#502D17"/>
<path d="M145.486 20.8346H139.444C139.033 20.8346 138.997 20.8346 139.082 21.2928C139.297 22.4027 139.887 23.4054 140.753 24.1339C141.62 24.8624 142.71 25.2725 143.842 25.2961C144.62 25.3431 145.398 25.2134 146.118 24.9168C146.838 24.6203 147.481 24.1645 147.999 23.5838C148.049 23.5141 148.106 23.4494 148.168 23.3909C148.364 23.1626 148.63 23.0047 148.925 22.9416C149.219 22.8784 149.527 22.9134 149.8 23.0412C150.259 23.2221 150.694 23.4512 151.141 23.6562C151.322 23.7471 151.479 23.8792 151.6 24.042C151.729 24.2165 151.799 24.4278 151.799 24.6449C151.799 24.862 151.729 25.0734 151.6 25.2478C150.943 26.2647 150.08 27.1332 149.066 27.7977C148.053 28.4622 146.912 28.9079 145.715 29.1064C143.815 29.4574 141.852 29.2131 140.097 28.407C138.73 27.819 137.536 26.8923 136.629 25.7148C135.722 24.5373 135.131 23.148 134.913 21.6787C134.496 19.5738 134.857 17.3895 135.928 15.5291C136.585 14.3218 137.516 13.285 138.647 12.5019C139.778 11.7187 141.078 11.211 142.441 11.0194C144.42 10.6573 146.463 10.9716 148.241 11.9117C149.399 12.4956 150.408 13.3357 151.191 14.3681C151.974 15.4004 152.511 16.5976 152.76 17.8684C152.879 18.431 152.932 19.0057 152.917 19.5806C152.918 19.8882 152.8 20.1845 152.589 20.4086C152.378 20.6328 152.089 20.7679 151.781 20.7864H145.486V20.8346ZM143.951 17.6995H148.289C148.446 17.6995 148.47 17.6151 148.422 17.4946C148.325 17.2366 148.208 16.9867 148.072 16.747C147.82 16.2725 147.477 15.8525 147.063 15.511C146.648 15.1695 146.169 14.9134 145.655 14.7574C144.754 14.4688 143.795 14.4067 142.864 14.5765C142.102 14.6896 141.384 14.9994 140.78 15.4754C140.176 15.9514 139.707 16.5768 139.42 17.2896C139.251 17.6513 139.287 17.6995 139.686 17.6995H143.951Z" fill="#502D17"/>
<path d="M83.7904 19.9961C83.7572 18.0818 84.3435 16.2079 85.4624 14.6526C86.5813 13.0972 88.173 11.9435 90.0012 11.3626C91.2957 10.9513 92.6607 10.8077 94.0128 10.9406C95.8361 11.1036 97.5688 11.8074 98.9878 12.9614C100.407 14.1153 101.448 15.6667 101.976 17.4157C102.351 18.6481 102.458 19.9463 102.289 21.2232C102.12 22.5001 101.68 23.7263 100.997 24.8193C100.358 25.9018 99.4929 26.8346 98.461 27.5545C97.429 28.2743 96.254 28.7643 95.0157 28.9914C93.4809 29.3458 91.8807 29.3013 90.368 28.8622C88.8554 28.423 87.481 27.604 86.3762 26.4833C84.9454 25.0871 84.048 23.2362 83.8387 21.2502C83.8387 21.1296 83.8387 20.9969 83.8387 20.8764L83.7904 19.9961ZM98.1453 19.9961C98.1543 19.5362 98.0973 19.0774 97.9761 18.6336C97.6554 17.4596 96.9256 16.4382 95.9178 15.753C94.9101 15.0678 93.6905 14.7638 92.4782 14.8956C91.8193 14.9547 91.1787 15.144 90.5937 15.4525C90.0087 15.7609 89.491 16.1823 89.0708 16.6923C88.5207 17.3239 88.1327 18.0796 87.9405 18.8942C87.7482 19.7088 87.7573 20.5578 87.967 21.3681C88.1767 22.1784 88.5807 22.9256 89.1443 23.5454C89.7078 24.1652 90.4139 24.6389 91.2017 24.9257C91.9896 25.2126 92.8355 25.3039 93.6665 25.1919C94.4976 25.0799 95.2889 24.7678 95.9723 24.2827C96.6556 23.7976 97.2105 23.1539 97.589 22.4071C97.9676 21.6603 98.1585 20.8329 98.1453 19.9961Z" fill="#502D17"/>
<path d="M104.61 17.6584V12.8352C104.586 12.6592 104.586 12.4807 104.61 12.3047C104.682 12.0601 104.829 11.8443 105.031 11.6883C105.232 11.5323 105.479 11.4442 105.734 11.4365H107.522C107.843 11.4365 108.15 11.5636 108.377 11.7897C108.603 12.0158 108.731 12.3225 108.731 12.6423V21.8666C108.722 22.275 108.779 22.6821 108.9 23.0724C109.039 23.5419 109.301 23.9663 109.657 24.3029C110.013 24.6395 110.452 24.8763 110.93 24.9896C111.569 25.1766 112.248 25.1766 112.887 24.9896C113.418 24.8466 113.896 24.5529 114.263 24.144C114.629 23.7352 114.869 23.2289 114.953 22.6866C114.984 22.394 114.984 22.099 114.953 21.8064V12.8835C114.941 12.7471 114.941 12.6099 114.953 12.4735C115 12.1882 115.147 11.929 115.369 11.7431C115.591 11.5571 115.872 11.4569 116.162 11.4606H117.926C118.214 11.4565 118.494 11.555 118.715 11.7385C118.937 11.922 119.085 12.1783 119.134 12.4614C119.152 12.5976 119.152 12.7353 119.134 12.8714V21.8666C119.167 22.968 118.957 24.0631 118.518 25.0741C118.09 26.1152 117.405 27.0309 116.526 27.7353C115.646 28.4397 114.602 28.9098 113.491 29.1014C112.189 29.3714 110.839 29.3134 109.564 28.9326C108.339 28.5978 107.234 27.9224 106.378 26.9853C105.523 26.0482 104.951 24.8877 104.731 23.6392C104.625 23.0546 104.584 22.4601 104.61 21.8666V17.6584Z" fill="#502D17"/>
<path d="M127.244 29.1879C125.394 29.223 123.594 28.5843 122.181 27.3912C121.958 27.2131 121.752 27.0154 121.565 26.8004C121.361 26.5781 121.248 26.2877 121.248 25.9865C121.248 25.6852 121.361 25.3948 121.565 25.1726C121.76 24.9157 121.978 24.6775 122.217 24.4611C122.416 24.2349 122.692 24.0909 122.992 24.0574C123.291 24.024 123.593 24.1035 123.836 24.2803C124.03 24.4129 124.199 24.5576 124.38 24.7023C125.044 25.2234 125.83 25.5678 126.664 25.7031C127.118 25.7857 127.585 25.7651 128.029 25.6428C128.305 25.5554 128.554 25.3999 128.753 25.1907C128.952 24.9816 129.096 24.7255 129.169 24.4464C129.243 24.1673 129.244 23.8742 129.174 23.5943C129.103 23.3144 128.963 23.0568 128.766 22.8454C128.504 22.5869 128.212 22.3602 127.896 22.1701C127.311 21.8406 126.705 21.5467 126.084 21.2899C125.183 20.9203 124.338 20.4294 123.571 19.8309C122.724 19.1968 122.088 18.3228 121.746 17.3228C121.403 16.2603 121.447 15.1108 121.872 14.0779C122.297 13.045 123.074 12.1954 124.066 11.6797C124.93 11.1974 125.893 10.9209 126.881 10.8718C128.573 10.7412 130.263 11.1418 131.715 12.0174C132.022 12.1827 132.256 12.4585 132.367 12.7891C132.437 12.9897 132.457 13.2042 132.425 13.4142C132.394 13.6242 132.312 13.8234 132.186 13.9949C132.031 14.2445 131.857 14.4822 131.666 14.7063C131.488 14.9587 131.219 15.1332 130.916 15.1938C130.612 15.2544 130.297 15.1964 130.035 15.0318C129.669 14.8229 129.289 14.6376 128.899 14.4772C128.239 14.2333 127.523 14.179 126.833 14.3204C126.626 14.3638 126.427 14.4369 126.241 14.5375C125.945 14.712 125.724 14.989 125.619 15.3158C125.514 15.6426 125.533 15.9964 125.673 16.31C125.838 16.6386 126.078 16.9237 126.374 17.142C126.862 17.5045 127.394 17.8043 127.957 18.0343C128.832 18.3923 129.676 18.8197 130.482 19.3124C131.175 19.7526 131.788 20.3071 132.295 20.9523C133.02 21.9202 133.348 23.1275 133.213 24.3285C133.093 25.5569 132.553 26.7067 131.684 27.585C130.815 28.4632 129.67 29.0164 128.44 29.1517C128.029 29.1637 127.643 29.1758 127.244 29.1879Z" fill="#502D17"/>
<path d="M38.2101 19.8038C38.2483 18.2546 38.688 16.7417 39.4864 15.4126C40.2847 14.0834 41.4144 12.9833 42.7655 12.2193C44.0849 11.4305 45.5791 10.979 47.1154 10.905C48.2781 10.8254 49.4455 10.9603 50.5592 11.3029C50.7537 11.3417 50.9318 11.4386 51.0699 11.5807C51.208 11.7229 51.2996 11.9035 51.3325 12.0987C51.3748 12.2486 51.3748 12.4071 51.3325 12.5569C51.1029 13.2563 50.8733 13.9436 50.6317 14.643C50.5331 14.8678 50.3569 15.0499 50.1351 15.1562C49.9134 15.2624 49.6608 15.2856 49.4233 15.2218C48.849 15.0417 48.249 14.9562 47.6471 14.9685C46.4459 14.9821 45.2867 15.4116 44.3676 16.1835C43.4486 16.9555 42.8267 18.0221 42.6084 19.2009C42.4338 20.0874 42.5161 21.0052 42.8457 21.8466C43.1753 22.6881 43.7385 23.4183 44.4692 23.9517C45.1237 24.4748 45.893 24.8359 46.7141 25.0057C47.5352 25.1754 48.3849 25.1489 49.1938 24.9284C49.3805 24.8634 49.5761 24.8268 49.7738 24.8199C49.9699 24.8088 50.1643 24.8616 50.3278 24.9703C50.4912 25.079 50.6148 25.2378 50.68 25.4228C50.9458 26.1221 51.1754 26.8336 51.3929 27.5329C51.4333 27.6555 51.448 27.7852 51.4361 27.9137C51.4241 28.0422 51.3858 28.1669 51.3234 28.2801C51.2611 28.3932 51.1761 28.4923 51.0737 28.5712C50.9713 28.6501 50.8538 28.7071 50.7283 28.7387C50.1391 28.9244 49.5314 29.0457 48.9158 29.1004C47.2775 29.3226 45.6095 29.1062 44.0826 28.4734C42.6605 27.9313 41.397 27.0427 40.4072 25.8886C39.4173 24.7344 38.7327 23.3515 38.4155 21.8657C38.2751 21.1874 38.2062 20.4963 38.2101 19.8038Z" fill="#502D17"/>
<path d="M73.4238 20.3259V12.5485C73.4362 12.2776 73.552 12.0217 73.7475 11.8333C73.943 11.645 74.2033 11.5385 74.4751 11.5356H76.4567C76.7324 11.545 76.9936 11.661 77.1853 11.8589C77.3769 12.0569 77.4839 12.3215 77.4838 12.5967C77.4838 12.8258 77.4838 13.055 77.4838 13.2841C77.4838 13.5132 77.4838 13.4287 77.4838 13.4408C77.4838 13.4529 77.6046 13.4408 77.6409 13.3685L77.9188 13.0911C78.4721 12.3048 79.2643 11.7171 80.1783 11.4151C80.7477 11.228 81.3496 11.1603 81.9464 11.2163C82.5431 11.2724 83.1219 11.4509 83.6462 11.7406C83.7161 11.7665 83.7793 11.8077 83.831 11.8613C83.8828 11.9149 83.9217 11.9795 83.9449 12.0502C83.9681 12.1209 83.9751 12.1959 83.9652 12.2697C83.9553 12.3434 83.9289 12.414 83.8879 12.4762C83.5012 13.2117 83.1146 13.9593 82.6796 14.6948C82.6008 14.8576 82.4656 14.9864 82.299 15.0573C82.1323 15.1283 81.9456 15.1366 81.7733 15.0807C81.4376 14.9984 81.0909 14.9699 80.7463 14.9963C80.1292 15.0954 79.5611 15.3916 79.1271 15.8403C78.4171 16.5625 77.9449 17.4838 77.7738 18.481C77.651 19.1207 77.5944 19.7712 77.6046 20.4224V27.7295C77.6046 27.8983 77.6046 28.0671 77.6046 28.2359C77.5925 28.4856 77.486 28.7214 77.3067 28.8959C77.1273 29.0704 76.8884 29.1706 76.638 29.1764C75.9009 29.1764 75.1638 29.1764 74.4388 29.1764C74.2059 29.1631 73.9845 29.0711 73.811 28.9155C73.6375 28.7599 73.5223 28.55 73.4842 28.3203C73.4722 28.1718 73.4722 28.0226 73.4842 27.8742L73.4238 20.3259Z" fill="#502D17"/>
</svg>
